<svg width="236" height="236" viewBox="0 0 236 236" fill="none" xmlns="http://www.w3.org/2000/svg">
<path d="M200.828 201.264C223.02 179.07 235.242 149.564 235.242 118.178C235.242 86.7929 223.02 57.2862 200.828 35.0929C178.634 12.9005 149.128 0.678234 117.742 0.678233C88.1947 0.678231 59.9498 11.6925 38.2118 31.6918C36.8128 32.9788 36.7219 35.1562 38.0094 36.5561C39.2968 37.9551 41.4743 38.046 42.8737 36.7585C63.3371 17.9315 89.926 7.563 117.742 7.563C178.736 7.563 228.358 57.1847 228.358 118.178C228.358 179.172 178.736 228.793 117.742 228.793C56.7488 228.793 7.12708 179.172 7.12709 118.178C7.12709 92.8845 15.8909 68.1531 31.8039 48.5397C33.0019 47.0627 32.7761 44.8959 31.2995 43.6975C29.823 42.5 27.6552 42.7253 26.4572 44.2019C9.55235 65.0379 0.242321 91.3097 0.24232 118.178C0.242318 149.564 12.4646 179.07 34.657 201.264C56.8502 223.456 86.357 235.678 117.742 235.678C149.128 235.678 178.634 223.456 200.828 201.264Z" fill="#808080"/>
<path d="M128.349 148.992C130.25 148.992 131.791 147.45 131.791 145.549V131.157C142.696 130.64 152.722 129.523 160.874 127.885C174.757 125.095 181.223 121.312 181.223 115.978C181.223 111.155 175.986 107.642 164.742 104.924C156.211 102.861 144.579 101.41 131.791 100.8V97.4826H158.928C162.88 97.4826 166.096 94.2669 166.096 90.3146V76.5529C166.096 72.6006 162.88 69.3854 158.928 69.3854H76.5568C72.6045 69.3854 69.3888 72.6006 69.3888 76.5529V90.3146C69.3888 94.2669 72.6045 97.4826 76.5568 97.4826H103.694V100.801C90.8353 101.415 79.1386 102.879 70.5992 104.959C59.4527 107.673 54.2612 111.175 54.2612 115.979C54.2612 121.312 60.7273 125.096 74.6102 127.886C82.7618 129.524 92.7892 130.64 103.693 131.157V177.254C103.693 181.206 106.909 184.421 110.861 184.421H124.623C128.575 184.421 131.791 181.206 131.791 177.254V162.206C131.791 160.305 130.25 158.763 128.348 158.763C126.447 158.763 124.906 160.305 124.906 162.206V177.254C124.906 177.41 124.779 177.536 124.623 177.536H110.861C110.705 177.536 110.578 177.41 110.578 177.254V131.4C112.94 131.456 115.329 131.487 117.742 131.487C120.155 131.487 122.543 131.456 124.906 131.4V145.55C124.906 147.45 126.447 148.992 128.349 148.992ZM161.232 111.181C169.786 113.053 173.199 115.051 174.144 115.981C173.049 117.073 168.725 119.479 157.417 121.537C150.084 122.872 141.274 123.8 131.791 124.263V107.692C143.03 108.243 153.406 109.469 161.232 111.181ZM78.0682 121.537C66.7882 119.484 62.4577 117.085 61.3493 115.989C62.1158 115.24 64.9105 113.239 74.1122 111.212C81.9508 109.485 92.389 108.246 103.694 107.692V124.263C94.2112 123.8 85.401 122.872 78.0682 121.537ZM117.742 124.603C115.333 124.603 112.943 124.57 110.579 124.513V94.0406C110.579 92.1395 109.038 90.5983 107.136 90.5983H76.5568C76.4007 90.5983 76.2736 90.4711 76.2736 90.3151V76.5533C76.2736 76.3973 76.4007 76.2706 76.5568 76.2706H158.928C159.084 76.2706 159.212 76.3973 159.212 76.5533V90.3151C159.212 90.4711 159.084 90.5983 158.928 90.5983H128.349C126.447 90.5983 124.907 92.1395 124.907 94.0406V124.513C122.542 124.57 120.152 124.603 117.742 124.603Z" fill="#808080"/>
<path d="M117.742 221.324C145.294 221.324 171.196 210.596 190.678 191.114C210.159 171.632 220.889 145.73 220.889 118.178C220.889 90.6267 210.159 64.7244 190.678 45.2428C171.196 25.7608 145.294 15.032 117.742 15.032C90.1909 15.032 64.2886 25.7608 44.807 45.2428C25.3249 64.7244 14.5957 90.6267 14.5957 118.178C14.5957 145.73 25.3249 171.632 44.8065 191.114C64.2886 210.596 90.1909 221.324 117.742 221.324ZM117.742 21.9168C170.822 21.9168 214.004 65.0994 214.004 118.178C214.004 171.257 170.822 214.44 117.742 214.44C64.6631 214.44 21.4805 171.257 21.4805 118.178C21.4805 65.0994 64.6631 21.9168 117.742 21.9168Z" fill="#808080"/>
</svg>
