<svg width="74" height="74" viewBox="0 0 74 74" fill="none" xmlns="http://www.w3.org/2000/svg">
<path d="M10.424 25.9999C15.1026 11.1316 29.0067 0.333252 45.4113 0.333252C56.261 0.333252 66.0144 5.05225 72.7317 12.5543C74.081 14.0613 73.9527 16.3823 72.4457 17.7316C70.9387 19.0809 68.6177 18.9526 67.2683 17.4456C61.893 11.4469 54.0903 7.66658 45.4113 7.66658C33.1097 7.66658 22.568 15.2529 18.212 25.9999H33.3333C35.3573 25.9999 37 27.6426 37 29.6666C37 31.6906 35.3573 33.3333 33.3333 33.3333H16.3053C16.155 34.5359 16.078 35.7569 16.078 36.9999C16.078 38.2429 16.155 39.4639 16.3053 40.6666H33.3333C35.3573 40.6666 37 42.3092 37 44.3333C37 46.3573 35.3573 47.9999 33.3333 47.9999H18.212C22.568 58.7469 33.1097 66.3333 45.4113 66.3333C54.0903 66.3333 61.893 62.5529 67.2683 56.5542C68.6177 55.0472 70.9387 54.9189 72.4457 56.2682C73.9527 57.6176 74.081 59.9386 72.7317 61.4456C66.0144 68.9476 56.261 73.6666 45.4113 73.6666C29.0067 73.6666 15.1026 62.8682 10.424 47.9999H3.99998C1.97598 47.9999 0.333313 46.3573 0.333313 44.3333C0.333313 42.3092 1.97598 40.6666 3.99998 40.6666H8.92432C8.80699 39.4603 8.74467 38.2356 8.74467 36.9999C8.74467 35.7643 8.80699 34.5396 8.92432 33.3333H3.99998C1.97598 33.3333 0.333313 31.6906 0.333313 29.6666C0.333313 27.6426 1.97598 25.9999 3.99998 25.9999H10.424Z" fill="#808080"/>
</svg>
