<svg width="75" height="85" viewBox="0 0 75 85" fill="none" xmlns="http://www.w3.org/2000/svg">
<path opacity="0.11" d="M46.875 51C60.9375 51 75 42.5 75 25.5C75 8.5 60.9375 0 45.6674 0H14.2271V42.5H4.25C1.90279 42.5 0 44.4028 0 46.75C0 49.0972 1.90279 51 4.25 51H14.0625V59.5H4.25C1.90279 59.5 0 61.4028 0 63.75C0 66.0972 1.90279 68 4.25 68H14.0625L14.1828 80.4173C14.2073 82.9554 16.2718 85 18.81 85C21.3657 85 23.4375 82.9282 23.4375 80.3725V68H37.9375C40.2847 68 42.1875 66.0972 42.1875 63.75C42.1875 61.4028 40.2847 59.5 37.9375 59.5H23.4375V51H46.875ZM23.4375 42.5V8.5H45.6674C56.25 8.5 65.625 12.75 65.625 25.5C65.625 38.25 56.25 42.5 46.875 42.5H23.4375Z" fill="#808080"/>
</svg>
