<svg width="165" height="165" viewBox="0 0 165 165" fill="none" xmlns="http://www.w3.org/2000/svg">
<g opacity="0.14">
<path d="M140.837 140.837C156.418 125.254 165 104.537 165 82.5C165 60.4635 156.418 39.746 140.837 24.1635C125.254 8.58161 104.537 -2.64294e-06 82.5 -3.60619e-06C61.7538 -4.51303e-06 41.9222 7.7334 26.6594 21.7755C25.6772 22.6791 25.6133 24.2079 26.5173 25.1909C27.4213 26.1731 28.9501 26.2369 29.9327 25.333C44.3006 12.114 62.9694 4.83398 82.5 4.83398C125.325 4.83398 160.166 39.6748 160.166 82.5C160.166 125.325 125.325 160.166 82.5 160.166C39.6748 160.166 4.83398 125.325 4.83398 82.5C4.83398 64.7406 10.9873 47.3759 22.1603 33.6049C23.0014 32.5678 22.8428 31.0464 21.8061 30.205C20.7694 29.3642 19.2473 29.5224 18.4062 30.5592C6.53684 45.1887 -2.78157e-06 63.6349 -3.60619e-06 82.5C-4.56944e-06 104.537 8.58161 125.254 24.1635 140.837C39.746 156.418 60.4635 165 82.5 165C104.537 165 125.254 156.418 140.837 140.837Z" fill="#808080"/>
<path d="M83.0001 132C96.3556 132 108.912 126.851 118.355 117.502C127.799 108.153 133 95.722 133 82.5C133 69.278 127.799 56.8475 118.355 47.4982C108.912 38.1487 96.3556 33 83.0001 33C69.6446 33 57.0885 38.1487 47.6448 47.4982C38.201 56.8475 33 69.278 33 82.5C33 95.722 38.201 108.153 47.6446 117.502C57.0885 126.851 69.6446 132 83.0001 132ZM83.0001 36.304C108.73 36.304 129.663 57.0274 129.663 82.5C129.663 107.973 108.73 128.696 83.0001 128.696C57.2701 128.696 36.3374 107.973 36.3374 82.5C36.3374 57.0274 57.2701 36.304 83.0001 36.304Z" fill="#808080"/>
<path d="M83.0001 141.8C99.0268 141.8 114.094 135.622 125.426 124.402C136.759 113.183 143 98.2664 143 82.4C143 66.5336 136.759 51.6169 125.426 40.3979C114.094 29.1785 99.0268 23 83.0001 23C66.9735 23 51.9062 29.1785 40.5738 40.3979C29.2412 51.6169 23 66.5336 23 82.4C23 98.2664 29.2412 113.183 40.5736 124.402C51.9062 135.622 66.9735 141.8 83.0001 141.8ZM83.0001 26.9648C113.876 26.9648 138.995 51.8329 138.995 82.4C138.995 112.967 113.876 137.835 83.0001 137.835C52.1241 137.835 27.0049 112.967 27.0049 82.4C27.0049 51.8329 52.1241 26.9648 83.0001 26.9648Z" fill="#808080"/>
<path d="M97 76.6795C97 84.7867 90.5081 91.3589 82.5 91.3589C74.4919 91.3589 68 84.7867 68 76.6795C68 68.5722 74.4919 62 82.5 62C90.5081 62 97 68.5722 97 76.6795Z" fill="#808080"/>
<path d="M76.1755 88.5479H88.9016L95.4574 119H70.7766L76.1755 88.5479Z" fill="#808080"/>
</g>
</svg>
