<svg width="101" height="175" viewBox="0 0 101 175" fill="none" xmlns="http://www.w3.org/2000/svg">
<g opacity="0.1">
<path d="M58.1525 76.5652V37.6811C66.4705 39.0841 74.3138 42.4973 81.0192 47.623C82.356 48.5397 83.9245 49.037 85.5484 49.0589C90.7512 49.0589 94.9933 44.8722 95.0483 39.6693C95.0593 37.438 94.1867 35.295 92.6181 33.7042C82.9302 25.4081 70.7789 20.5145 58.0421 19.7855V6.75026C58.0421 3.02738 55.0264 0.011688 51.3035 0.011688C51.2262 0.000750372 51.1487 0.000750372 51.0714 0.000750372C47.2935 -0.0546211 44.1783 2.96142 44.123 6.75026V19.3435C19.268 21.111 2.3667 36.466 2.3667 56.9021C2.3667 81.9779 23.6868 88.9376 44.123 94.4608V138.648C33.3412 137.2 23.1785 132.727 14.8492 125.723C13.2807 124.475 11.3362 123.779 9.32574 123.735C4.23327 124.088 0.311806 128.352 0.377773 133.456C0.366836 135.687 1.23945 137.83 2.80796 139.421C14.2193 149.695 28.8893 155.605 44.233 156.102V168.253C44.233 168.33 44.244 168.408 44.244 168.485C44.4207 172.263 47.6353 175.179 51.4132 174.991C55.1361 174.991 58.1518 171.976 58.1518 168.253V155.881C88.3091 153.892 100.46 135.555 100.46 116.113C100.461 90.0423 78.589 82.0886 58.1525 76.5652ZM44.2337 73.0303C32.1928 69.4954 22.8032 65.8501 22.8032 55.5766C22.8032 45.3032 31.3092 37.9019 44.2337 36.9079V73.0303ZM58.1525 138.868V98.6587C70.6353 102.194 80.3561 106.944 80.2457 118.543C80.2457 126.938 74.5014 136.88 58.1525 138.868Z" fill="#808080"/>
</g>
</svg>
