<svg width="101" height="163" viewBox="0 0 101 163" fill="none" xmlns="http://www.w3.org/2000/svg">
<path opacity="0.14" d="M58.1525 70.5652V31.6811C66.4705 33.0842 74.3138 36.4974 81.0192 41.623C82.356 42.5397 83.9245 43.037 85.5484 43.0589C90.7512 43.0589 94.9933 38.8722 95.0483 33.6693C95.0593 31.438 94.1867 29.295 92.6181 27.7042C82.9302 19.4081 70.7789 14.5145 58.0421 13.7855V0.750275L44.123 0.750277V13.3435C19.268 15.111 2.3667 30.466 2.3667 50.9022C2.3667 75.9779 23.6868 82.9376 44.123 88.4608V132.648C33.3412 131.2 23.1785 126.727 14.8492 119.723C13.2807 118.475 11.3362 117.779 9.32574 117.735C4.23327 118.088 0.311806 122.352 0.377773 127.456C0.366836 129.687 1.23945 131.83 2.80796 133.421C14.2193 143.695 28.8893 149.605 44.233 150.102L44.244 162.485L58.1518 162.253V149.881C88.3091 147.892 100.46 129.555 100.46 110.113C100.461 84.0423 78.589 76.0887 58.1525 70.5652ZM44.2337 67.0303C32.1928 63.4954 22.8032 59.8501 22.8032 49.5767C22.8032 39.3032 31.3092 31.9019 44.2337 30.9079V67.0303ZM58.1525 132.868V92.6587C70.6353 96.1936 80.3561 100.944 80.2457 112.543C80.2457 120.938 74.5014 130.88 58.1525 132.868Z" fill="#808080"/>
</svg>
