<svg width="364" height="391" viewBox="0 0 364 391" fill="none" xmlns="http://www.w3.org/2000/svg">
<g opacity="0.12">
<path d="M300.273 309.226C317.939 292.015 331.479 270.737 339.623 247.449C340.476 245.011 339.106 242.381 336.644 241.601C334.183 240.822 331.563 242.188 330.709 244.624C314.266 291.508 276.201 326.916 228.045 339.82C148.223 361.208 65.8832 313.669 44.4949 233.847C31.5016 185.355 43.3421 134.442 76.1616 96.6919C77.855 94.7442 77.7449 91.7919 75.8497 90.0399C73.9542 88.2875 70.9913 88.3994 69.2959 90.3461C52.9922 109.067 41.1666 131.518 34.9894 155.559C28.2155 181.915 28.3797 209.824 35.4649 236.266C46.4719 277.345 72.8177 311.68 109.648 332.944C146.478 354.208 189.386 359.857 230.465 348.85C256.755 341.805 280.893 328.104 300.273 309.226Z" fill="#808080"/>
<path d="M150.468 50.2965C230.29 28.9082 312.63 76.4472 334.018 156.269C340.211 179.38 340.789 203.703 335.732 226.915C335.182 229.437 336.694 231.976 339.198 232.605C341.701 233.234 344.248 231.716 344.803 229.195C350.244 204.442 349.651 178.494 343.048 153.85C332.041 112.771 305.695 78.4362 268.865 57.1722C232.035 35.9082 189.127 30.2595 148.048 41.2665C123.702 47.7899 101.162 60.0446 82.5775 76.8225C80.6615 78.5522 80.6037 81.5164 82.3899 83.3798C84.1762 85.2432 87.1299 85.2997 89.0492 83.5736C106.499 67.8796 127.638 56.4136 150.468 50.2965Z" fill="#808080"/>
<path d="M240.511 173.246C240.511 163.798 232.824 156.112 223.373 156.112H193.996V165.458H223.373C227.669 165.458 231.165 168.951 231.165 173.246C231.165 177.544 227.669 181.038 223.373 181.038H165.732V165.458H184.65V156.112H156.386V190.384H223.373C232.824 190.384 240.511 182.697 240.511 173.246Z" fill="#808080"/>
<path d="M223.373 199.732H193.996V209.079H223.373C227.669 209.079 231.165 212.572 231.165 216.87C231.165 221.165 227.669 224.659 223.373 224.659H165.732V209.079H184.65V199.732H156.386V234.005H223.373C232.824 234.005 240.511 226.318 240.511 216.87C240.511 207.419 232.824 199.732 223.373 199.732Z" fill="#808080"/>
<path d="M259.205 216.87C259.205 208.891 256.603 201.292 251.803 195.058C256.603 188.824 259.205 181.225 259.205 173.246C259.205 153.49 243.132 137.417 223.373 137.417H223.062V112.491H195.022V137.417H185.984V112.491H157.943V137.417H119.308V165.458H137.691V224.659H119.308V252.699H157.943V277.626H185.984V252.699H195.022V277.626H223.062V252.699H223.373C243.132 252.699 259.205 236.626 259.205 216.87ZM223.373 243.353H213.716V268.279H204.368V243.353H176.638V268.279H167.289V243.353H128.654V234.005H147.037V156.111H128.654V146.763H167.289V121.837H176.638V146.763H204.368V121.837H213.716V146.763H223.373C237.979 146.763 249.859 158.643 249.859 173.246C249.859 180.219 247.167 186.803 242.279 191.786L239.073 195.058L242.279 198.331C247.167 203.313 249.859 209.897 249.859 216.87C249.859 231.473 237.979 243.353 223.373 243.353Z" fill="#808080"/>
<path d="M85.1884 193.189C85.1884 190.608 87.2806 188.516 89.8614 188.516H105.442C108.022 188.516 110.115 190.608 110.115 193.189C110.115 195.77 108.022 197.862 105.442 197.862H89.8614C87.2806 197.862 85.1884 195.77 85.1884 193.189Z" fill="#808080"/>
<path d="M274.63 193.189C274.63 190.608 276.722 188.516 279.303 188.516H294.883C297.464 188.516 299.556 190.608 299.556 193.189C299.556 195.77 297.464 197.862 294.883 197.862H279.303C276.722 197.862 274.63 195.77 274.63 193.189Z" fill="#808080"/>
</g>
</svg>
