<svg width="364" height="391" viewBox="0 0 364 391" fill="none" xmlns="http://www.w3.org/2000/svg">
<g opacity="0.14">
<path d="M300.273 309.226C319.055 290.929 333.172 268.033 341.101 243.013L332.188 240.19C316.639 289.27 277.708 326.513 228.045 339.82C148.223 361.208 65.8832 313.669 44.4949 233.847C31.0979 183.849 44.1018 131.276 79.2812 93.212L72.4174 86.8668C54.4984 106.256 41.5542 130.009 34.9894 155.559C28.2155 181.915 28.3797 209.824 35.4649 236.266C46.4719 277.345 72.8177 311.68 109.648 332.944C146.478 354.208 189.386 359.857 230.465 348.85C256.755 341.805 280.893 328.104 300.273 309.226Z" fill="#808080"/>
<path d="M150.468 50.2965C230.29 28.9082 312.63 76.4472 334.018 156.269C340.617 180.895 340.841 206.897 334.664 231.465L343.731 233.744C350.295 207.636 350.057 180.008 343.048 153.85C332.041 112.771 305.695 78.4362 268.865 57.1722C232.035 35.9082 189.127 30.2595 148.048 41.2665C122.188 48.1958 98.3645 61.5915 79.1556 80.0059L85.6243 86.7538C103.7 69.425 126.123 56.8196 150.468 50.2965Z" fill="#808080"/>
<path d="M240.511 173.246C240.511 163.798 232.824 156.112 223.373 156.112H193.996V165.458H223.373C227.669 165.458 231.165 168.951 231.165 173.246C231.165 177.544 227.669 181.038 223.373 181.038H165.732V165.458H184.65V156.112H156.386V190.384H223.373C232.824 190.384 240.511 182.697 240.511 173.246Z" fill="#808080"/>
<path d="M223.373 199.732H193.996V209.079H223.373C227.669 209.079 231.165 212.572 231.165 216.87C231.165 221.165 227.669 224.659 223.373 224.659H165.732V209.079H184.65V199.732H156.386V234.005H223.373C232.824 234.005 240.511 226.318 240.511 216.87C240.511 207.419 232.824 199.732 223.373 199.732Z" fill="#808080"/>
<path d="M259.205 216.87C259.205 208.891 256.603 201.292 251.803 195.058C256.603 188.824 259.205 181.225 259.205 173.246C259.205 153.49 243.132 137.417 223.373 137.417H223.062V112.491H195.022V137.417H185.984V112.491H157.943V137.417H119.308V165.458H137.691V224.659H119.308V252.699H157.943V277.626H185.984V252.699H195.022V277.626H223.062V252.699H223.373C243.132 252.699 259.205 236.626 259.205 216.87ZM223.373 243.353H213.716V268.279H204.368V243.353H176.638V268.279H167.289V243.353H128.654V234.005H147.037V156.111H128.654V146.763H167.289V121.837H176.638V146.763H204.368V121.837H213.716V146.763H223.373C237.979 146.763 249.859 158.643 249.859 173.246C249.859 180.219 247.167 186.803 242.279 191.786L239.073 195.058L242.279 198.331C247.167 203.313 249.859 209.897 249.859 216.87C249.859 231.473 237.979 243.353 223.373 243.353Z" fill="#808080"/>
<path d="M85.1884 188.516H110.115V197.862H85.1884V188.516Z" fill="#808080"/>
<path d="M274.63 188.516H299.556V197.862H274.63V188.516Z" fill="#808080"/>
</g>
</svg>
