<svg width="409" height="476" viewBox="0 0 409 476" fill="none" xmlns="http://www.w3.org/2000/svg">
<g opacity="0.14">
<path d="M238.739 13.972C362.248 13.972 462.729 114.453 462.729 237.962C462.729 276.065 452.62 314.281 434.2 347.359L446.781 353.566C466.356 318.414 476.701 278.436 476.701 237.962C476.701 174.401 451.948 114.642 407.004 69.6971C362.059 24.7525 302.3 -6.86585e-05 238.739 -7.14368e-05C198.725 -7.31858e-05 159.151 10.1232 124.297 29.2767L131.025 41.5205C163.824 23.4962 201.071 13.972 238.739 13.972Z" fill="#808080"/>
<path d="M354.844 445.724C389.037 426.574 418.274 398.982 439.4 365.929L427.624 358.406C386.191 423.245 315.582 461.951 238.739 461.951C115.231 461.951 14.7497 361.47 14.7497 237.962C14.7497 160.599 53.8593 89.733 119.37 48.3904L111.915 36.5751C78.5465 57.635 50.6713 86.919 31.3108 121.265C11.3366 156.692 0.777611 197.047 0.77761 237.962C0.777607 301.522 25.5302 361.282 70.4748 406.226C115.419 451.171 175.178 475.923 238.739 475.923C279.417 475.923 319.565 465.48 354.844 445.724Z" fill="#808080"/>
<path d="M238.739 294.696L129.301 229.461L238.739 380.243L348.178 229.461L238.739 294.696ZM231.753 346.834L180.534 276.265L231.753 306.795V346.834ZM245.725 306.795L296.944 276.265L245.725 346.834V306.795Z" fill="#808080"/>
<path d="M238.739 278.433L342.702 224.371L238.739 96.4976L134.776 224.371L238.739 278.433ZM245.725 127.238L306.425 201.898L245.725 172.139V127.238ZM245.725 187.698L316.355 222.327L245.725 259.054V187.698ZM231.753 259.054L161.123 222.327L231.753 187.698V259.054ZM231.753 127.238V172.139L171.054 201.898L231.753 127.238Z" fill="#808080"/>
<path d="M231.07 28.0786C226.201 28.2529 221.285 28.6015 216.456 29.1098L217.923 43.0021C222.432 42.5264 227.022 42.2032 231.572 42.0398L231.07 28.0786Z" fill="#808080"/>
<path d="M303.299 38.0529L299.007 51.346C303.331 52.7403 307.663 54.3089 311.886 56.0082L317.1 43.0492C312.576 41.23 307.932 39.5453 303.299 38.0529Z" fill="#808080"/>
<path d="M260.333 29.0372L258.913 42.9367C263.437 43.3978 267.998 44.026 272.464 44.7994L274.853 31.0342C270.064 30.2064 265.18 29.531 260.333 29.0372Z" fill="#808080"/>
<path d="M133.462 56.1934L140.473 68.2774C144.402 65.9972 148.454 63.8294 152.525 61.8324L146.377 49.2909C142.013 51.4296 137.666 53.7534 133.462 56.1934Z" fill="#808080"/>
<path d="M343.457 55.8703L336.482 67.976C340.418 70.2418 344.325 72.6782 348.098 75.2199L355.901 63.6334C351.859 60.9101 347.673 58.2994 343.457 55.8703Z" fill="#808080"/>
<path d="M121.381 412.159C125.419 414.882 129.602 417.5 133.814 419.933L140.804 407.838C136.871 405.565 132.964 403.122 129.195 400.58L121.381 412.159Z" fill="#808080"/>
<path d="M187.607 34.2114C182.883 35.3914 178.145 36.7567 173.523 38.2636L177.858 51.5458C182.168 50.137 186.591 48.8661 191.002 47.7623L187.607 34.2114Z" fill="#808080"/>
<path d="M330.891 426.738C335.259 424.603 339.605 422.282 343.813 419.846L336.813 407.758C332.888 410.031 328.828 412.192 324.75 414.189L330.891 426.738Z" fill="#808080"/>
<path d="M289.639 441.77C294.359 440.594 299.101 439.236 303.731 437.732L299.41 424.447C295.092 425.848 290.666 427.119 286.262 428.212L289.639 441.77Z" fill="#808080"/>
<path d="M173.955 437.798L178.261 424.508C173.94 423.107 169.608 421.534 165.389 419.832L160.16 432.787C164.681 434.613 169.321 436.298 173.955 437.798Z" fill="#808080"/>
<path d="M246.172 447.852C251.041 447.685 255.957 447.34 260.787 446.839L259.334 432.943C254.828 433.415 250.235 433.735 245.685 433.891L246.172 447.852Z" fill="#808080"/>
<path d="M216.91 446.861L218.344 432.965C213.823 432.496 209.266 431.865 204.797 431.084L202.393 444.845C207.182 445.684 212.066 446.36 216.91 446.861Z" fill="#808080"/>
<path d="M397.156 122.441C399.836 126.108 402.421 129.917 404.836 133.759L416.662 126.319C414.077 122.205 411.306 118.128 408.438 114.199L397.156 122.441Z" fill="#808080"/>
<path d="M368.072 403.448C371.903 400.449 375.675 397.279 379.288 394.022L369.935 383.645C366.561 386.684 363.039 389.647 359.459 392.446L368.072 403.448Z" fill="#808080"/>
<path d="M379.005 81.6432L369.673 92.0387C373.054 95.0743 376.369 98.2695 379.532 101.53L389.564 91.81C386.18 88.3169 382.625 84.8965 379.005 81.6432Z" fill="#808080"/>
<path d="M388.939 363.969L399.636 372.955C402.766 369.226 405.805 365.341 408.667 361.409L397.371 353.188C394.698 356.863 391.862 360.49 388.939 363.969Z" fill="#808080"/>
<path d="M50.1664 184.143L36.7281 180.316C35.3991 184.996 34.2154 189.782 33.2133 194.546L46.884 197.421C47.8172 192.973 48.921 188.507 50.1664 184.143Z" fill="#808080"/>
<path d="M59.6578 317.873C57.806 313.73 56.0813 309.471 54.5236 305.215L41.4011 310.004C43.0678 314.565 44.9196 319.133 46.9021 323.574L59.6578 317.873Z" fill="#808080"/>
<path d="M46.9747 278.941C46.0343 274.504 45.2355 269.973 44.6037 265.47L30.7659 267.413C31.4449 272.235 32.3018 277.093 33.3113 281.846L46.9747 278.941Z" fill="#808080"/>
<path d="M28.718 238.002V238.19H42.6901V237.962C42.6901 233.477 42.8426 228.953 43.144 224.505L29.2046 223.561C28.8814 228.321 28.718 233.165 28.718 238.002Z" fill="#808080"/>
<path d="M53.1511 139.561C50.8636 143.864 48.7031 148.305 46.7242 152.753L59.4909 158.424C61.3354 154.274 63.3543 150.131 65.4893 146.115L53.1511 139.561Z" fill="#808080"/>
<path d="M98.2954 394.12L107.642 383.736C104.265 380.693 100.95 377.498 97.7943 374.233L87.751 383.943C91.1314 387.439 94.6789 390.863 98.2954 394.12Z" fill="#808080"/>
<path d="M88.3973 112.122L77.6895 103.15C74.5632 106.882 71.5313 110.771 68.67 114.707L79.977 122.913C82.6458 119.239 85.478 115.608 88.3973 112.122Z" fill="#808080"/>
<path d="M80.1912 353.304C77.5151 349.633 74.9371 345.821 72.5261 341.979L60.689 349.401C63.2707 353.518 66.0339 357.6 68.9024 361.532L80.1912 353.304Z" fill="#808080"/>
<path d="M109.217 72.6237C105.39 75.6266 101.621 78.8037 98.0121 82.0607L107.377 92.4273C110.746 89.3845 114.268 86.4179 117.845 83.6148L109.217 72.6237Z" fill="#808080"/>
</g>
</svg>
