<svg width="141" height="89" viewBox="0 0 141 89" fill="none" xmlns="http://www.w3.org/2000/svg">
<path opacity="0.13" d="M45.878 57.6949C45.878 52.7815 47.3387 47.9784 50.0754 43.893C52.8121 39.8076 56.7019 36.6234 61.2528 34.743C65.8038 32.8626 70.8117 32.3705 75.6431 33.3288C80.4745 34.2872 84.9125 36.653 88.3959 40.1272C91.8793 43.6013 94.2516 48.0277 95.213 52.8466C96.1743 57.6656 95.6814 62.6607 93.7967 67.2002C91.912 71.7398 88.72 75.62 84.6244 78.3501C80.5289 81.0802 75.7136 82.5377 70.7876 82.5382C64.1836 82.5319 57.8518 79.9125 53.1818 75.255C48.5118 70.5974 45.885 64.2821 45.878 57.6949ZM67.584 0.00531755V26.3334C49.7207 27.1489 36.2193 34.7057 26.4169 43.5534L4.52708 21.7196L0 26.2351L21.8365 48.0158C15.5749 54.7162 10.3738 62.3295 6.41248 70.5934C5.17153 73.2177 4.57502 74.8592 4.54839 74.9283L10.5747 77.1037C10.6014 77.0293 11.126 75.6083 12.2072 73.3213C16.5026 64.2398 27.1598 46.2282 46.8819 37.5584C42.9728 42.159 40.4822 47.7898 39.7106 53.7711C38.9391 59.7524 39.9196 65.8287 42.5338 71.2664C45.148 76.7042 49.2842 81.2711 54.4431 84.4158C59.6021 87.5606 65.5633 89.1489 71.6072 88.989C77.6512 88.8291 83.5195 86.9278 88.5041 83.5147C93.4886 80.1015 97.3763 75.3223 99.6978 69.754C102.019 64.1856 102.675 58.0661 101.587 52.134C100.499 46.2019 97.7123 40.7107 93.5642 36.3233C123.243 46.7568 130.774 75.8526 130.809 76.182L137.2 75.8447C137.019 72.4102 132.305 57.4798 119.39 44.8868L141 23.3319L136.473 18.8164L114.588 40.6449C105.002 32.9818 91.7826 26.9842 73.9858 26.3334V0H67.584V0.00531755Z" fill="#808080"/>
</svg>
