<svg width="73" height="128" viewBox="0 0 73 128" fill="none" xmlns="http://www.w3.org/2000/svg">
<path opacity="0.13" d="M25.1641 61.6873L22.4951 60.1218C17.2603 57.0592 13.1825 52.3657 10.8905 46.7653C8.59845 41.1649 8.21969 34.9687 9.81255 29.1326C11.4054 23.2965 14.8814 18.1446 19.7044 14.4716C24.5274 10.7987 30.4294 8.80877 36.5 8.80877C42.5706 8.80877 48.4726 10.7987 53.2956 14.4716C58.1186 18.1446 61.5946 23.2965 63.1875 29.1326C64.7803 34.9687 64.4015 41.1649 62.1095 46.7653C59.8175 52.3657 55.7396 57.0592 50.5049 60.1218L47.7193 61.7547L60.8502 119.184H14.4466L25.1641 61.6873ZM3.13056e-07 36.366C-0.000762934 42.1695 1.39411 47.8889 4.06783 53.045C6.74155 58.2012 10.6163 62.6441 15.3676 66.0018L3.83063 128H71.9324L57.7451 65.9306C62.8322 62.303 66.898 57.4336 69.5522 51.7897C72.2064 46.1458 73.36 39.917 72.9021 33.7011C72.4443 27.4852 70.3904 21.4908 66.9377 16.2934C63.485 11.096 58.7493 6.87003 53.1852 4.0211C47.621 1.17216 41.4153 -0.20408 35.1636 0.0244576C28.9118 0.252996 22.824 2.07864 17.4844 5.32617C12.1448 8.5737 7.73276 13.1341 4.67163 18.5696C1.61051 24.0051 0.00312479 30.1333 0.00376319 36.366" fill="#808080"/>
</svg>
