<svg width="23" height="18" viewBox="0 0 23 18" fill="none" xmlns="http://www.w3.org/2000/svg">
<path fill-rule="evenodd" clip-rule="evenodd" d="M15.9986 10.9292L2.43606 10.9292C2.00481 10.9278 1.59158 10.7477 1.28663 10.4281C0.98169 10.1085 0.809816 9.67533 0.808557 9.22332L0.80849 8.45162C0.80849 8.45162 0.981692 8.17573 1.28664 7.85611C1.59158 7.53649 2.00481 7.35634 2.43607 7.35502L15.9986 7.35502L15.9986 0.856562L22.3143 7.59861C22.6931 8.01434 22.904 8.56728 22.9032 9.14209C22.904 9.71688 22.693 10.2698 22.3142 10.6855L15.9988 17.4276L15.9986 10.9292Z" fill="url(#paint0_linear_641_337)"/>
<path fill-rule="evenodd" clip-rule="evenodd" d="M15.9986 10.9292L2.43606 10.9292C2.00481 10.9278 1.59158 10.7477 1.28663 10.4281C0.98169 10.1085 0.809816 9.67533 0.808557 9.22332L0.80849 8.45162C0.80849 8.45162 0.981692 8.17573 1.28664 7.85611C1.59158 7.53649 2.00481 7.35634 2.43607 7.35502L15.9986 7.35502L15.9986 0.856562L22.3143 7.59861C22.6931 8.01434 22.904 8.56728 22.9032 9.14209C22.904 9.71688 22.693 10.2698 22.3142 10.6855L15.9988 17.4276L15.9986 10.9292Z" fill="url(#paint1_radial_641_337)" fill-opacity="0.8"/>
<path fill-rule="evenodd" clip-rule="evenodd" d="M15.9986 10.9292L2.43606 10.9292C2.00481 10.9278 1.59158 10.7477 1.28663 10.4281C0.98169 10.1085 0.809816 9.67533 0.808557 9.22332L0.80849 8.45162C0.80849 8.45162 0.981692 8.17573 1.28664 7.85611C1.59158 7.53649 2.00481 7.35634 2.43607 7.35502L15.9986 7.35502L15.9986 0.856562L22.3143 7.59861C22.6931 8.01434 22.904 8.56728 22.9032 9.14209C22.904 9.71688 22.693 10.2698 22.3142 10.6855L15.9988 17.4276L15.9986 10.9292Z" fill="#FFAD00" fill-opacity="0.45"/>
<path fill-rule="evenodd" clip-rule="evenodd" d="M15.9986 10.9292L2.43606 10.9292C2.00481 10.9278 1.59158 10.7477 1.28663 10.4281C0.98169 10.1085 0.809816 9.67533 0.808557 9.22332L0.80849 8.45162C0.80849 8.45162 0.981692 8.17573 1.28664 7.85611C1.59158 7.53649 2.00481 7.35634 2.43607 7.35502L15.9986 7.35502L15.9986 0.856562L22.3143 7.59861C22.6931 8.01434 22.904 8.56728 22.9032 9.14209C22.904 9.71688 22.693 10.2698 22.3142 10.6855L15.9988 17.4276L15.9986 10.9292Z" fill="url(#paint2_radial_641_337)" fill-opacity="0.8"/>
<defs>
<linearGradient id="paint0_linear_641_337" x1="12.1421" y1="-3" x2="23.9074" y2="15.4644" gradientUnits="userSpaceOnUse">
<stop offset="0.208333" stop-color="white"/>
<stop offset="0.369792" stop-color="#59636C" stop-opacity="0.65"/>
<stop offset="0.66093" stop-color="white"/>
<stop offset="0.78266" stop-color="#486177" stop-opacity="0.55"/>
<stop offset="1" stop-color="#67737E" stop-opacity="0.95"/>
</linearGradient>
<radialGradient id="paint1_radial_641_337" cx="0" cy="0" r="1" gradientUnits="userSpaceOnUse" gradientTransform="translate(12.1421 -3) rotate(108.593) scale(19.1719 7.97229)">
<stop stop-color="white"/>
<stop offset="1" stop-color="#F8B017" stop-opacity="0.2"/>
</radialGradient>
<radialGradient id="paint2_radial_641_337" cx="0" cy="0" r="1" gradientUnits="userSpaceOnUse" gradientTransform="translate(12.1421 -3) rotate(106.113) scale(19.6117 11.27)">
<stop offset="0.28423" stop-color="white" stop-opacity="0.75"/>
<stop offset="0.98979" stop-color="#F8B017" stop-opacity="0.1"/>
</radialGradient>
</defs>
</svg>
