<svg width="32" height="56" viewBox="0 0 32 56" fill="none" xmlns="http://www.w3.org/2000/svg">
<path d="M27.5 53.5C28.7257 53.2549 28.7257 53.2548 28.7257 53.2547L28.7256 53.2541L28.7252 53.252L28.7235 53.2437L28.717 53.2111L28.6912 53.0828L28.5915 52.5871C28.5044 52.1549 28.3772 51.5255 28.2166 50.736C27.8954 49.1572 27.4409 46.9381 26.907 44.3766C25.8984 39.5366 24.6054 33.4673 23.3945 28.1835C27.5026 25.685 30.25 21.1643 30.25 16C30.25 8.12994 23.8701 1.75 16 1.75C8.12994 1.75 1.75 8.12994 1.75 16C1.75 21.2211 4.5581 25.7843 8.7416 28.2652C7.93782 32.6618 6.8661 38.6533 5.97352 43.669C5.49635 46.3505 5.07024 48.7538 4.76342 50.4868C4.61 51.3533 4.48641 52.0523 4.40117 52.5346L4.30314 53.0895L4.27769 53.2337L4.27121 53.2704L4.26957 53.2797L4.26916 53.282L4.26906 53.2826C4.26903 53.2827 4.26902 53.2828 5.5 53.5L4.26902 53.2828L4.0101 54.75H5.5H27.5H29.0248L28.7257 53.2549L27.5 53.5Z" fill="black"/>
<path d="M27.5 53.5C28.7257 53.2549 28.7257 53.2548 28.7257 53.2547L28.7256 53.2541L28.7252 53.252L28.7235 53.2437L28.717 53.2111L28.6912 53.0828L28.5915 52.5871C28.5044 52.1549 28.3772 51.5255 28.2166 50.736C27.8954 49.1572 27.4409 46.9381 26.907 44.3766C25.8984 39.5366 24.6054 33.4673 23.3945 28.1835C27.5026 25.685 30.25 21.1643 30.25 16C30.25 8.12994 23.8701 1.75 16 1.75C8.12994 1.75 1.75 8.12994 1.75 16C1.75 21.2211 4.5581 25.7843 8.7416 28.2652C7.93782 32.6618 6.8661 38.6533 5.97352 43.669C5.49635 46.3505 5.07024 48.7538 4.76342 50.4868C4.61 51.3533 4.48641 52.0523 4.40117 52.5346L4.30314 53.0895L4.27769 53.2337L4.27121 53.2704L4.26957 53.2797L4.26916 53.282L4.26906 53.2826C4.26903 53.2827 4.26902 53.2828 5.5 53.5L4.26902 53.2828L4.0101 54.75H5.5H27.5H29.0248L28.7257 53.2549L27.5 53.5Z" stroke="url(#paint0_linear_806_190)" stroke-width="2.5"/>
<path d="M27.5 53.5C28.7257 53.2549 28.7257 53.2548 28.7257 53.2547L28.7256 53.2541L28.7252 53.252L28.7235 53.2437L28.717 53.2111L28.6912 53.0828L28.5915 52.5871C28.5044 52.1549 28.3772 51.5255 28.2166 50.736C27.8954 49.1572 27.4409 46.9381 26.907 44.3766C25.8984 39.5366 24.6054 33.4673 23.3945 28.1835C27.5026 25.685 30.25 21.1643 30.25 16C30.25 8.12994 23.8701 1.75 16 1.75C8.12994 1.75 1.75 8.12994 1.75 16C1.75 21.2211 4.5581 25.7843 8.7416 28.2652C7.93782 32.6618 6.8661 38.6533 5.97352 43.669C5.49635 46.3505 5.07024 48.7538 4.76342 50.4868C4.61 51.3533 4.48641 52.0523 4.40117 52.5346L4.30314 53.0895L4.27769 53.2337L4.27121 53.2704L4.26957 53.2797L4.26916 53.282L4.26906 53.2826C4.26903 53.2827 4.26902 53.2828 5.5 53.5L4.26902 53.2828L4.0101 54.75H5.5H27.5H29.0248L28.7257 53.2549L27.5 53.5Z" stroke="url(#paint1_radial_806_190)" stroke-opacity="0.85" stroke-width="2.5"/>
<path d="M27.5 53.5C28.7257 53.2549 28.7257 53.2548 28.7257 53.2547L28.7256 53.2541L28.7252 53.252L28.7235 53.2437L28.717 53.2111L28.6912 53.0828L28.5915 52.5871C28.5044 52.1549 28.3772 51.5255 28.2166 50.736C27.8954 49.1572 27.4409 46.9381 26.907 44.3766C25.8984 39.5366 24.6054 33.4673 23.3945 28.1835C27.5026 25.685 30.25 21.1643 30.25 16C30.25 8.12994 23.8701 1.75 16 1.75C8.12994 1.75 1.75 8.12994 1.75 16C1.75 21.2211 4.5581 25.7843 8.7416 28.2652C7.93782 32.6618 6.8661 38.6533 5.97352 43.669C5.49635 46.3505 5.07024 48.7538 4.76342 50.4868C4.61 51.3533 4.48641 52.0523 4.40117 52.5346L4.30314 53.0895L4.27769 53.2337L4.27121 53.2704L4.26957 53.2797L4.26916 53.282L4.26906 53.2826C4.26903 53.2827 4.26902 53.2828 5.5 53.5L4.26902 53.2828L4.0101 54.75H5.5H27.5H29.0248L28.7257 53.2549L27.5 53.5Z" stroke="#FFAD00" stroke-opacity="0.5" stroke-width="2.5"/>
<path d="M27.5 53.5C28.7257 53.2549 28.7257 53.2548 28.7257 53.2547L28.7256 53.2541L28.7252 53.252L28.7235 53.2437L28.717 53.2111L28.6912 53.0828L28.5915 52.5871C28.5044 52.1549 28.3772 51.5255 28.2166 50.736C27.8954 49.1572 27.4409 46.9381 26.907 44.3766C25.8984 39.5366 24.6054 33.4673 23.3945 28.1835C27.5026 25.685 30.25 21.1643 30.25 16C30.25 8.12994 23.8701 1.75 16 1.75C8.12994 1.75 1.75 8.12994 1.75 16C1.75 21.2211 4.5581 25.7843 8.7416 28.2652C7.93782 32.6618 6.8661 38.6533 5.97352 43.669C5.49635 46.3505 5.07024 48.7538 4.76342 50.4868C4.61 51.3533 4.48641 52.0523 4.40117 52.5346L4.30314 53.0895L4.27769 53.2337L4.27121 53.2704L4.26957 53.2797L4.26916 53.282L4.26906 53.2826C4.26903 53.2827 4.26902 53.2828 5.5 53.5L4.26902 53.2828L4.0101 54.75H5.5H27.5H29.0248L28.7257 53.2549L27.5 53.5Z" stroke="url(#paint2_radial_806_190)" stroke-opacity="0.15" stroke-width="2.5"/>
<defs>
<linearGradient id="paint0_linear_806_190" x1="3" y1="3" x2="35.3325" y2="30.6772" gradientUnits="userSpaceOnUse">
<stop offset="0.208333" stop-color="white"/>
<stop offset="0.369792" stop-color="#535C65" stop-opacity="0.75"/>
<stop offset="0.66093" stop-color="white"/>
<stop offset="0.78266" stop-color="#485F74" stop-opacity="0.65"/>
<stop offset="1" stop-color="#525E68" stop-opacity="0.95"/>
</linearGradient>
<radialGradient id="paint1_radial_806_190" cx="0" cy="0" r="1" gradientUnits="userSpaceOnUse" gradientTransform="translate(3 3) rotate(75.6595) scale(52.1242 13.0574)">
<stop stop-color="white"/>
<stop offset="1" stop-color="#F8B017" stop-opacity="0.2"/>
</radialGradient>
<radialGradient id="paint2_radial_806_190" cx="0" cy="0" r="1" gradientUnits="userSpaceOnUse" gradientTransform="translate(3 3) rotate(74.1425) scale(52.4978 18.7475)">
<stop offset="0.28423" stop-color="white" stop-opacity="0.75"/>
<stop offset="0.98979" stop-color="#F8B017" stop-opacity="0.1"/>
</radialGradient>
</defs>
</svg>
