<svg width="110" height="110" viewBox="0 0 110 110" fill="none" xmlns="http://www.w3.org/2000/svg">
<path d="M55 110C24.6775 110 0 85.3352 0 55C0 24.6648 24.6648 0 55 0C85.3225 0 110 24.6648 110 55C110 85.3352 85.3225 110 55 110ZM55 1.02982C25.2369 1.02982 1.02982 25.2369 1.02982 55C1.02982 84.7631 25.2369 108.97 55 108.97C84.7631 108.97 108.97 84.7631 108.97 55C108.97 25.2369 84.7631 1.02982 55 1.02982Z" fill="url(#paint0_linear_839_244)"/>
<path d="M50.512 46.0749C50.5501 46.0494 50.601 46.0367 50.6518 46.0113L51.4782 47.9311C49.3423 48.8465 47.7149 50.5247 46.8504 52.6733C45.9986 54.822 46.024 57.174 46.9394 59.2972C48.821 63.6835 53.9193 65.7177 58.3055 63.8234L59.1319 65.7432C53.6904 68.0825 47.3589 65.5524 45.0196 60.1109C43.8881 57.4792 43.8499 54.555 44.9179 51.8851C45.9477 49.2915 47.9311 47.2318 50.512 46.0749Z" fill="url(#paint1_linear_839_244)"/>
<path d="M50.6518 46.0367C56.0933 43.6974 62.4121 46.2274 64.7514 51.6562C65.883 54.288 65.9211 57.2122 64.8531 59.8694C63.7852 62.5266 61.7637 64.6243 59.1192 65.7559L58.3055 63.8488C60.4414 62.9207 62.0815 61.2425 62.9333 59.0938C63.7979 56.9452 63.7597 54.5931 62.8444 52.4699C60.9627 48.0837 55.8518 46.0494 51.4655 47.9311L50.6518 46.0367Z" fill="url(#paint2_linear_839_244)"/>
<path d="M61.6493 42.604C61.7129 42.6294 61.7637 42.6676 61.8273 42.693L60.4796 45.2612C57.6317 43.761 54.377 43.4686 51.313 44.4094C48.2489 45.3629 45.7316 47.448 44.2441 50.2832C41.1546 56.1442 43.4177 63.4293 49.2915 66.5187L47.9438 69.0869C40.6588 65.26 37.849 56.2078 41.6759 48.9355C43.5321 45.4138 46.647 42.8202 50.4611 41.6378C54.199 40.4808 58.1657 40.8241 61.6493 42.604Z" fill="url(#paint3_linear_839_244)"/>
<path d="M61.8145 42.7184C69.0868 46.5453 71.8966 55.5848 68.0697 62.8571C66.2135 66.3789 63.0986 68.9725 59.2972 70.1549C55.4958 71.3373 51.4655 70.9686 47.931 69.1123L49.266 66.5696C52.1266 68.0571 55.3686 68.3622 58.4454 67.4214C61.5094 66.4679 64.0267 64.3828 65.527 61.5349C68.6164 55.6611 66.3534 48.3761 60.4796 45.2866L61.8145 42.7184Z" fill="url(#paint4_linear_839_244)"/>
<path d="M75.1387 51.5799C75.1641 51.6689 75.1768 51.7579 75.1895 51.8596L71.2355 52.6479C70.371 48.2616 67.8409 44.4983 64.1412 42.0191C60.4415 39.5399 55.9917 38.65 51.6181 39.5272C42.5913 41.3199 36.7175 50.1306 38.5102 59.1574L34.5562 59.9456C32.3312 48.732 39.629 37.7982 50.8299 35.5732C56.2587 34.4926 61.7765 35.5987 66.3789 38.6754C70.905 41.6886 74.0072 46.2656 75.1387 51.5799Z" fill="url(#paint5_linear_839_244)"/>
<path d="M75.1641 51.8597C77.389 63.0606 70.0913 73.9817 58.9031 76.2067C53.4743 77.2873 47.9565 76.1812 43.3668 73.1172C38.7644 70.0405 35.6368 65.3745 34.5689 59.933L38.4847 59.1574C39.3747 63.5437 41.8793 67.3197 45.5918 69.7989C49.3042 72.2781 53.754 73.1681 58.1276 72.2908C67.1671 70.4982 73.0536 61.6748 71.2483 52.6352L75.1641 51.8597Z" fill="url(#paint6_linear_839_244)"/>
<path d="M77.2365 73.9945C77.1602 74.0962 77.0712 74.1979 76.9949 74.2996L72.6976 70.7143C76.6771 65.9466 78.5333 59.933 77.9739 53.7668C77.4145 47.6006 74.4776 42.0192 69.7226 38.0652C59.8948 29.8902 45.2485 31.2506 37.0735 41.0784L32.7762 37.4931C42.9346 25.2878 61.1153 23.6096 73.3079 33.7552C79.2198 38.6755 82.856 45.5918 83.5553 53.2455C84.2164 60.7848 81.9787 68.1334 77.2365 73.9945Z" fill="url(#paint7_linear_839_244)"/>
<path d="M76.9568 74.2742C66.8112 86.4667 48.6431 88.1449 36.4633 78.012C30.5641 73.1045 26.9279 66.1882 26.2287 58.5344C25.5294 50.8807 27.8306 43.4304 32.7636 37.5185L37.0227 41.0657C33.056 45.8588 31.1871 51.8597 31.7465 58.0386C32.3059 64.2175 35.2428 69.7989 40.0105 73.7529C49.851 81.9279 64.51 80.5802 72.6977 70.7397L76.9568 74.2742Z" fill="url(#paint8_linear_839_244)"/>
<path d="M54.8728 95.8495C54.6948 95.8495 54.5168 95.8495 54.3261 95.8495L54.4279 88.0813C63.0605 88.2085 71.172 84.9537 77.3254 78.9528C83.4917 72.9519 86.9498 64.9168 87.0515 56.3222C87.2804 38.5737 73.0155 23.9401 55.2542 23.7113L55.356 15.9431C77.4017 16.2355 95.1121 34.3909 94.8197 56.4239C94.6798 67.1035 90.3825 77.0839 82.7415 84.5215C75.2404 91.8446 65.3617 95.8495 54.8728 95.8495Z" fill="url(#paint9_linear_839_244)"/>
<path d="M54.3389 95.7859C32.3058 95.4935 14.6209 77.3509 14.9133 55.3305C15.0532 44.6636 19.3377 34.696 26.9915 27.2584C34.6325 19.8208 44.7018 15.7778 55.3941 15.9431L55.2924 23.6477C46.6597 23.5587 38.5356 26.7753 32.3694 32.7889C26.2032 38.7898 22.745 46.8377 22.6306 55.445C22.4018 73.2189 36.6794 87.8525 54.4533 88.094L54.3389 95.7859Z" fill="url(#paint10_linear_839_244)"/>
<path d="M36.1962 97.8329L34.073 102.143L32.8779 101.583L33.7043 99.9052L32.0642 99.1424L31.2378 100.821L30.0427 100.261L32.1659 95.9512L33.361 96.5106L32.5601 98.1253L34.2001 98.8881L35.0011 97.2735L36.1962 97.8329Z" fill="#432918"/>
<path d="M37.5439 98.3542L38.7898 98.7483L37.8744 101.406L40.6333 99.3331L41.8284 99.7146L40.2774 104.241L39.0314 103.847L39.9468 101.189L37.1879 103.262L35.9928 102.88L37.5439 98.3542Z" fill="#432918"/>
<path d="M43.2524 100.058L44.5492 100.287L43.9771 103.033L46.4563 100.63L47.6895 100.846L46.7233 105.525L45.4265 105.296L45.9859 102.562L43.5067 104.965L42.2607 104.749L43.2524 100.058Z" fill="#432918"/>
<path d="M56.7036 104.864L56.6528 106.885L55.4323 106.898L55.4577 105.944L52.4191 105.957L52.3937 106.91L51.1604 106.923L51.2113 104.902H51.3766C51.6563 104.902 51.8597 104.698 51.9868 104.317C52.114 103.935 52.1902 103.389 52.2411 102.677L52.3301 101.215L56.1442 101.189L56.0679 104.876L56.7036 104.864ZM53.2582 104.063C53.1819 104.419 53.0802 104.686 52.9531 104.876L54.7457 104.864L54.8093 102.245L53.4489 102.257L53.4235 102.778C53.3853 103.287 53.3345 103.719 53.2582 104.063Z" fill="#432918"/>
<path d="M62.0434 104.266L62.1451 105.296L58.3564 105.766L57.8987 101.049L61.5984 100.592L61.7001 101.622L59.3226 101.914L59.3989 102.702L61.4967 102.435L61.5984 103.427L59.5006 103.694L59.5896 104.558L62.0434 104.266Z" fill="#432918"/>
<path d="M67.3196 99.2822L68.3368 103.897L67.0272 104.215L66.6331 102.423L64.8532 102.868L65.2473 104.66L63.9378 104.978L62.9207 100.363L64.2302 100.045L64.6116 101.774L66.3915 101.329L66.0101 99.6001L67.3196 99.2822Z" fill="#432918"/>
<path d="M73.5621 100.948L73.9054 101.914L70.3074 103.262L68.7436 98.8245L72.2526 97.515L72.5959 98.4813L70.3328 99.3204L70.5998 100.071L72.5832 99.3331L72.9137 100.274L70.9304 101.011L71.2228 101.825L73.5621 100.948Z" fill="#432918"/>
<path d="M77.084 96.3454L75.1388 97.2989L76.7026 100.592L75.5075 101.177L73.486 96.9302L76.6263 95.3792L77.084 96.3454Z" fill="#432918"/>
<path d="M18.6258 91.1836L21.1685 88.5137L21.6644 88.9714L20.571 90.1156L21.9441 91.387L23.0375 90.2427L23.5333 90.7004L20.9905 93.3703L20.4947 92.9127L21.5372 91.8066L20.1641 90.5352L19.1216 91.6413L18.6258 91.1836Z" fill="#683C11"/>
<path d="M17.9265 86.2506L19.1216 87.5982L19.9989 87.3058L20.4566 87.8271L16.5916 89.0349L16.1593 88.539L17.8629 84.9029L18.3207 85.4242L17.9265 86.2506ZM17.6722 86.7591L16.9094 88.3229L18.5749 87.7635L17.6722 86.7591Z" fill="#683C11"/>
<path d="M12.574 83.9239L15.905 83.4281C16.1974 83.3772 16.4517 83.4026 16.6806 83.4789C16.8967 83.5552 17.0747 83.6823 17.2018 83.8603C17.3036 84.0002 17.3798 84.1655 17.418 84.3562L16.884 84.5469C16.8331 84.407 16.7823 84.3053 16.7314 84.229C16.6043 84.051 16.4009 83.9748 16.1339 84.0002L16.0322 84.0129L14.6591 86.7845L14.2395 86.2124L15.3583 84.0765L12.9554 84.4579L12.574 83.9239Z" fill="#683C11"/>
<path d="M10.4127 80.4277L13.5784 78.5206L13.9217 79.0928L12.7266 79.8174C13.019 80.0463 13.2352 80.2878 13.3877 80.5421C13.6293 80.9362 13.7056 81.2922 13.642 81.6228C13.5784 81.9533 13.3623 82.2331 12.9936 82.4492L11.9892 83.0595L11.6459 82.4873L12.5867 81.9152C12.8156 81.7754 12.9427 81.6101 12.9809 81.4194C13.019 81.2287 12.9682 81.0125 12.8283 80.771C12.663 80.504 12.4596 80.2879 12.2053 80.1099L10.7432 80.9871L10.4127 80.4277Z" fill="#683C11"/>
<path d="M8.17496 75.9778L11.4933 74.3759L11.7857 74.9734L10.3617 75.66L11.1627 77.3382L12.5866 76.6516L12.8791 77.2492L9.56076 78.8511L9.26834 78.2536L10.6414 77.5925L9.84046 75.9142L8.46737 76.5754L8.17496 75.9778Z" fill="#683C11"/>
<path d="M10.5397 72.4688C10.4889 72.7994 10.349 73.1045 10.1329 73.3588C9.91674 73.613 9.63704 73.8038 9.30648 73.9309C8.97592 74.058 8.63265 74.0835 8.3148 74.0326C7.98424 73.969 7.69183 73.8292 7.45026 73.613C7.19599 73.3969 7.00528 73.1045 6.89085 72.7612C6.76372 72.418 6.73829 72.0747 6.78914 71.7441C6.84 71.4136 6.97985 71.1084 7.19599 70.8542C7.41212 70.5999 7.69183 70.4092 8.02239 70.282C8.36566 70.1549 8.69621 70.1295 9.02677 70.1803C9.35733 70.2439 9.63704 70.3837 9.89132 70.5999C10.1456 70.816 10.3363 71.1084 10.4507 71.4517C10.5651 71.795 10.5906 72.1382 10.5397 72.4688ZM9.49719 71.0957C9.33191 70.9559 9.12849 70.8669 8.91235 70.8287C8.68351 70.7906 8.46737 70.816 8.2258 70.905C7.99696 70.994 7.80625 71.1211 7.65368 71.2864C7.50112 71.4644 7.41212 71.6551 7.37398 71.8713C7.33584 72.0874 7.34855 72.3163 7.43755 72.5451C7.51383 72.7739 7.64097 72.9519 7.80625 73.1045C7.97153 73.2443 8.17495 73.3334 8.39108 73.3715C8.61993 73.4096 8.83607 73.3842 9.07763 73.2952C9.30648 73.2062 9.49719 73.0791 9.64975 72.9138C9.80232 72.7358 9.89132 72.5451 9.92946 72.329C9.9676 72.1128 9.95489 71.884 9.86589 71.6551C9.78961 71.4263 9.67518 71.2356 9.49719 71.0957Z" fill="#683C11"/>
<path d="M7.42483 69.2013L7.05612 67.8282L7.57739 67.6757L7.94609 69.0488L7.42483 69.2013Z" fill="#683C11"/>
<path d="M5.18726 66.7094L5.07283 66.061L7.62831 65.5524L4.71684 64.1539L4.60242 63.5437L8.21315 62.819L8.32757 63.4674L5.77209 63.9759L8.67084 65.3744L8.78527 65.9847L5.18726 66.7094Z" fill="#683C11"/>
<path d="M7.79359 60.7212C7.65374 61.0263 7.45031 61.2806 7.18332 61.484C6.91633 61.6747 6.59849 61.8019 6.2425 61.84C5.88651 61.8782 5.55596 61.8273 5.25082 61.6875C4.94569 61.5476 4.70413 61.3442 4.52613 61.0645C4.33543 60.7848 4.23372 60.4669 4.20829 60.0982C4.18286 59.8058 4.20829 59.5261 4.29729 59.2718C4.38628 59.0176 4.51342 58.7887 4.70412 58.6107L5.14911 59.0048C4.88212 59.2973 4.7677 59.6278 4.80584 60.0092C4.83127 60.2508 4.89483 60.4669 5.02197 60.6576C5.14911 60.8356 5.31439 60.9755 5.51781 61.0645C5.72123 61.1535 5.95008 61.1916 6.19164 61.1662C6.43321 61.1408 6.64934 61.0645 6.84005 60.9373C7.03076 60.8102 7.17061 60.6322 7.25961 60.4288C7.3486 60.2254 7.38674 59.9965 7.37403 59.7422C7.3486 59.3608 7.17061 59.0557 6.86547 58.8269L7.24689 58.3564C7.46302 58.509 7.6283 58.6997 7.75544 58.9286C7.88258 59.1574 7.95887 59.4244 7.9843 59.7295C7.9843 60.0728 7.93344 60.4161 7.79359 60.7212Z" fill="#683C11"/>
<path d="M7.59019 56.6146C7.42491 56.9071 7.19606 57.1486 6.91636 57.3266C6.62394 57.5046 6.3061 57.5936 5.95011 57.5936C5.59412 57.5936 5.26356 57.5173 4.98386 57.352C4.70415 57.1868 4.4753 56.9579 4.32273 56.6655C4.15746 56.3731 4.08118 56.0425 4.08118 55.6738C4.08118 55.3814 4.13203 55.1017 4.24645 54.8601C4.34817 54.6186 4.50073 54.4024 4.70415 54.2244L5.11099 54.6567C4.81858 54.9237 4.67873 55.2543 4.67873 55.6357C4.67873 55.89 4.72958 56.1061 4.84401 56.2968C4.95843 56.4875 5.09828 56.6401 5.3017 56.7545C5.49241 56.8562 5.72126 56.9071 5.96282 56.9071C6.20438 56.9071 6.43323 56.8435 6.62394 56.7291C6.81465 56.6146 6.97993 56.4621 7.08164 56.2587C7.19606 56.0552 7.24691 55.8391 7.24691 55.5848C7.24691 55.2034 7.10707 54.8856 6.81465 54.6186L7.2342 54.1736C7.43762 54.3389 7.57748 54.5423 7.67919 54.7838C7.7809 55.0254 7.83175 55.3051 7.83175 55.5975C7.83175 55.9789 7.74276 56.3095 7.59019 56.6146Z" fill="#683C11"/>
<path d="M4.52619 49.8382L8.17506 50.1052L8.11149 50.7663L5.03474 50.5375L4.89488 51.9614L5.79757 52.0631C6.30612 52.114 6.71297 52.1903 7.03081 52.2793C7.33594 52.3682 7.5775 52.4954 7.71735 52.6479C7.86992 52.8005 7.93349 53.0167 7.90806 53.2709C7.89535 53.3599 7.86992 53.4871 7.81906 53.6396L7.23423 53.5506C7.24694 53.5125 7.25966 53.4616 7.27237 53.3981C7.2978 53.1819 7.18338 53.0294 6.94181 52.9277C6.70025 52.8259 6.30612 52.7369 5.77214 52.6734L4.27191 52.5081L4.52619 49.8382Z" fill="#683C11"/>
<path d="M8.35302 45.8715L8.91243 45.9605L8.39116 48.6431L4.79315 48.0583L5.3017 45.452L5.86112 45.541L5.4797 47.4862L6.42052 47.6387L6.75108 45.9097L7.29778 45.9987L6.96722 47.7277L7.9589 47.893L8.35302 45.8715Z" fill="#683C11"/>
<path d="M9.63704 41.1674L10.9338 41.4979L10.7559 42.0955L10.0057 41.9048L9.2302 44.6001L9.98031 44.7908L9.80232 45.4011L8.50551 45.0578L8.54365 44.9052C8.5945 44.6764 8.48008 44.4857 8.18766 44.3204C7.89524 44.1551 7.46297 43.9771 6.87814 43.8118L5.77203 43.4813L6.50943 40.9131L9.47175 41.6759L9.63704 41.1674ZM8.2258 43.6593C8.51822 43.7991 8.70893 43.939 8.79792 44.1043L9.30647 42.3243L6.89085 41.7013L6.49672 43.0744L7.1197 43.2651C7.56468 43.3923 7.93338 43.5321 8.2258 43.6593Z" fill="#683C11"/>
<path d="M10.6415 39.6035C10.3745 39.8324 10.0821 39.9722 9.75155 40.0231C9.42099 40.0867 9.09043 40.0485 8.75987 39.9341C8.42932 39.807 8.16233 39.6162 7.95891 39.362C7.75548 39.1077 7.62834 38.8026 7.5902 38.472C7.55206 38.1414 7.60292 37.7982 7.74277 37.4549C7.88262 37.1116 8.08604 36.8192 8.34032 36.6031C8.60731 36.3742 8.89973 36.2344 9.23029 36.1835C9.56085 36.1199 9.89141 36.1581 10.222 36.2725C10.5525 36.3997 10.8195 36.5904 11.0229 36.8446C11.2264 37.0989 11.3408 37.3913 11.3789 37.7346C11.4171 38.0652 11.3662 38.4084 11.2264 38.7517C11.0992 39.095 10.8958 39.3747 10.6415 39.6035ZM10.7814 37.8745C10.7559 37.6583 10.667 37.4549 10.5271 37.2896C10.3872 37.1243 10.1965 36.9845 9.9804 36.9082C9.75155 36.8192 9.5227 36.8065 9.30657 36.8319C9.07772 36.8701 8.88701 36.9591 8.70902 37.0989C8.53102 37.2388 8.40389 37.4295 8.31489 37.6583C8.22589 37.8872 8.18775 38.1033 8.22589 38.3322C8.26403 38.561 8.34032 38.7517 8.48017 38.917C8.62002 39.0823 8.81073 39.2221 9.02686 39.2984C9.25571 39.3874 9.48457 39.4001 9.7007 39.3747C9.92955 39.3365 10.1203 39.2475 10.2982 39.1077C10.4762 38.9678 10.6034 38.7771 10.6924 38.5483C10.7687 38.3067 10.8068 38.0906 10.7814 37.8745Z" fill="#683C11"/>
<path d="M12.396 32.5092C12.5867 32.4711 12.7774 32.4965 12.9808 32.5855C13.2606 32.7254 13.4385 32.9415 13.4767 33.2212C13.5275 33.5136 13.4513 33.8569 13.2351 34.251L12.4342 35.8021L9.17941 34.2256L9.92953 32.7635C10.1202 32.3948 10.3364 32.1405 10.5907 32.0134C10.8449 31.8735 11.0992 31.8735 11.3662 32.0007C11.5315 32.0897 11.6586 32.1914 11.7476 32.344C11.8239 32.4838 11.862 32.6491 11.8493 32.8398C12.0273 32.6618 12.2053 32.5474 12.396 32.5092ZM10.8958 34.3019L11.3153 33.4882C11.417 33.2975 11.4552 33.1195 11.4298 32.9796C11.4043 32.8398 11.3153 32.7381 11.1628 32.6618C11.0102 32.5855 10.8703 32.5855 10.7432 32.6491C10.6161 32.7127 10.4889 32.8398 10.3872 33.0432L9.96767 33.8569L10.8958 34.3019ZM12.6249 33.1703C12.307 33.0178 12.04 33.1576 11.8239 33.5772L11.3408 34.5053L12.2943 34.9757L12.7774 34.0476C12.9936 33.628 12.9427 33.3356 12.6249 33.1703Z" fill="#683C11"/>
<path d="M15.1167 29.4833L14.1251 31.0344L14.6463 31.7718L14.2649 32.3694L12.0654 29.0892L12.4341 28.5171L16.4136 29.0002L16.0321 29.5978L15.1167 29.4833ZM14.5446 29.3943L12.8283 29.1528L13.8072 30.5513L14.5446 29.3943Z" fill="#683C11"/>
<path d="M16.0957 24.4105L15.3583 25.3768L17.8121 27.1694L17.4052 27.7034L14.9515 25.9108L14.2141 26.877L13.7564 26.5465L15.6507 24.0673L16.0957 24.4105Z" fill="#683C11"/>
<path d="M20.66 22.9866L21.0795 23.3553L19.2233 25.4149L16.5153 23.0502L18.3206 21.0414L18.7402 21.4101L17.3925 22.9103L18.0918 23.5206L19.2869 22.1983L19.7064 22.5543L18.5113 23.8766L19.2614 24.525L20.66 22.9866Z" fill="#683C11"/>
<path d="M21.7661 17.7231L24.2453 20.3294L23.7495 20.7871L21.6644 18.6003L20.5964 19.592L21.194 20.2658C21.5246 20.6473 21.7788 20.9651 21.9441 21.2448C22.1094 21.5118 22.1984 21.7661 22.1984 21.9822C22.1984 22.1983 22.1094 22.4018 21.9187 22.5798C21.8551 22.6433 21.7534 22.7196 21.6136 22.7959L21.2449 22.3382C21.283 22.3128 21.3339 22.2874 21.372 22.2492C21.5246 22.0966 21.55 21.9059 21.4483 21.6644C21.3466 21.4228 21.1177 21.105 20.7617 20.6981L19.7701 19.5793L21.7661 17.7231Z" fill="#683C11"/>
<path d="M26.254 16.0449C26.5592 16.0449 26.8262 16.1974 27.0677 16.5026C27.3093 16.8204 27.3983 17.1382 27.322 17.4561C27.2457 17.7867 27.0169 18.0918 26.6482 18.3842L25.3895 19.3632L23.1773 16.5407L23.7113 16.1211L24.4614 17.0747L25.2751 16.4517C25.6184 16.172 25.9489 16.0449 26.254 16.0449ZM26.6863 17.4815C26.7245 17.3035 26.6736 17.1128 26.5338 16.9348C26.2668 16.5916 25.9108 16.5916 25.4658 16.9348L24.7665 17.4815L25.6056 18.5495L26.3049 18.0028C26.521 17.8375 26.6482 17.6595 26.6863 17.4815Z" fill="#683C11"/>
<path d="M29.2546 16.2864C28.9113 16.3118 28.5934 16.261 28.301 16.1211C28.0086 15.9813 27.767 15.7651 27.5763 15.46C27.3856 15.1676 27.2839 14.8497 27.2839 14.5192C27.2712 14.1886 27.3602 13.8835 27.5255 13.5783C27.6908 13.2859 27.9323 13.0317 28.2502 12.8282C28.5044 12.6629 28.7714 12.5612 29.0257 12.5104C29.2927 12.4595 29.547 12.4722 29.8012 12.5358L29.6487 13.1207C29.2673 13.0317 28.924 13.0952 28.5934 13.2986C28.3773 13.4385 28.212 13.6038 28.1103 13.8072C27.9959 14.0106 27.945 14.214 27.9577 14.4429C27.9705 14.659 28.034 14.8752 28.1739 15.0786C28.301 15.282 28.4663 15.4346 28.6697 15.5363C28.8731 15.638 29.0766 15.6761 29.3054 15.6634C29.5343 15.6507 29.7504 15.5617 29.9665 15.4346C30.2971 15.2184 30.5005 14.926 30.5641 14.5446L31.1616 14.6463C31.1235 14.9006 31.0218 15.1421 30.8692 15.371C30.7166 15.5998 30.5132 15.7906 30.2589 15.9558C29.9284 16.1338 29.5978 16.2482 29.2546 16.2864Z" fill="#683C11"/>
<path d="M32.9034 12.574L32.2931 12.8918L32.9924 14.2268L32.3948 14.5446L30.7293 11.3662L31.3269 11.0483L32.0261 12.3833L32.6491 12.0527L32.8907 10.2219L33.5391 9.87866L33.2339 12.0146L35.2554 13.0444L34.5689 13.4131L32.9034 12.574Z" fill="#683C11"/>
<path d="M34.7342 9.33199L35.3571 9.065L36.3234 11.4298L37.1879 8.30217L37.7728 8.06061L39.1331 11.3916L38.5102 11.6586L37.5439 9.30657L36.6794 12.4342L36.0945 12.6757L34.7342 9.33199Z" fill="#683C11"/>
<path d="M39.5273 7.42484L40.1757 7.22142L40.8877 9.67519L42.0701 6.63659L42.6803 6.44588L43.6847 9.89132L43.0363 10.0947L42.3244 7.65369L41.142 10.6796L40.5317 10.8703L39.5273 7.42484ZM40.2901 6.7383C40.0994 6.66201 39.9723 6.50944 39.896 6.28059L40.3537 6.14075C40.3919 6.25517 40.4554 6.34417 40.5571 6.38231C40.6588 6.42045 40.7733 6.42045 40.9258 6.38231C41.0657 6.33146 41.1801 6.26788 41.2437 6.17889C41.3072 6.08989 41.32 5.97546 41.2945 5.86104L41.7522 5.72119C41.8158 5.95004 41.7904 6.15346 41.6632 6.31874C41.5488 6.48402 41.3327 6.62387 41.0275 6.71287C40.7351 6.80186 40.4808 6.81458 40.2901 6.7383Z" fill="#683C11"/>
<path d="M46.5326 5.55594L47.1938 5.45422L47.5497 7.98428L49.1517 5.13638L49.7747 5.03467L50.2705 8.60726L49.6094 8.70897L49.2534 6.17891L47.6642 9.02681L47.0412 9.12852L46.5326 5.55594Z" fill="#683C11"/>
<path d="M54.8855 4.64056L55.0127 8.25128L54.3261 8.28943L54.2753 6.73834L52.3809 6.85276L52.4318 8.40385L51.7452 8.44199L51.6181 4.83127L52.3046 4.79313L52.3555 6.28064L54.2499 6.16622L54.199 4.6787L54.8855 4.64056Z" fill="#683C11"/>
<path d="M57.1868 8.07329C56.8944 7.90801 56.6783 7.67916 56.5257 7.38674C56.3731 7.09432 56.3095 6.77648 56.335 6.42049C56.3604 6.06451 56.4621 5.74666 56.6528 5.47967C56.8435 5.19996 57.0851 4.99654 57.4029 4.84398C57.7081 4.69141 58.0513 4.62785 58.42 4.64056C58.7252 4.65327 58.9922 4.71684 59.2337 4.81855C59.4753 4.93297 59.6787 5.08554 59.8313 5.28896L59.3609 5.68309C59.1066 5.39068 58.7887 5.23811 58.4073 5.22539C58.1531 5.21268 57.9242 5.26354 57.7208 5.36525C57.5174 5.46696 57.3521 5.60681 57.2249 5.79751C57.0978 5.98822 57.0342 6.20436 57.0215 6.44592C57.0088 6.68749 57.0469 6.91633 57.1487 7.10704C57.2504 7.29774 57.3902 7.46302 57.5809 7.57745C57.7716 7.69187 58.0005 7.75544 58.2421 7.76816C58.6235 7.78087 58.9667 7.65374 59.2464 7.37403L59.666 7.8063C59.488 7.997 59.2592 8.13686 59.0049 8.23857C58.7506 8.32757 58.4709 8.37842 58.1658 8.36571C57.7971 8.34028 57.4665 8.25128 57.1868 8.07329Z" fill="#683C11"/>
<path d="M63.7599 5.74663L62.552 5.60678L62.1071 8.63267L61.4332 8.55639L61.8782 5.5305L60.6831 5.39064L60.7721 4.83124L63.8489 5.19993L63.7599 5.74663Z" fill="#683C11"/>
<path d="M65.171 5.40338L65.8194 5.54323L65.2219 8.06057L67.7392 5.93736L68.3622 6.0645L67.5231 9.61165L66.8747 9.4718L67.4595 6.96718L64.9549 9.06496L64.3319 8.93782L65.171 5.40338Z" fill="#683C11"/>
<path d="M72.4561 7.8444L71.2991 7.48841L70.3201 10.3999L69.6717 10.2092L70.6507 7.2977L69.5065 6.94171L69.6845 6.39502L72.6341 7.2977L72.4561 7.8444Z" fill="#683C11"/>
<path d="M76.639 8.83616L74.0199 10.9721C73.7911 11.1628 73.5622 11.2772 73.3334 11.3281C73.1045 11.3789 72.8884 11.3662 72.6722 11.2772C72.507 11.2136 72.3544 11.1119 72.2145 10.9721L72.5832 10.5398C72.6977 10.6288 72.7994 10.6924 72.8884 10.7305C73.0918 10.8068 73.3079 10.7687 73.5241 10.6161L73.6131 10.5525L73.3334 7.51392L74.0072 7.78091L74.1598 10.1457L76.0287 8.58188L76.639 8.83616Z" fill="#683C11"/>
<path d="M79.8555 11.0483L78.7748 10.5143L77.3382 13.2478L76.7406 12.9554L78.1773 10.2219L77.1093 9.68794L77.3763 9.17938L80.1225 10.5398L79.8555 11.0483Z" fill="#683C11"/>
<path d="M83.0848 12.2561L83.6315 12.6248L82.1313 14.7607L85.2462 13.7182L85.7675 14.0742L83.6443 17.0746L83.0976 16.7059L84.5978 14.5827L81.4829 15.6253L80.9616 15.2693L83.0848 12.2561Z" fill="#683C11"/>
<path d="M87.6745 18.2698C87.6618 18.4605 87.5982 18.6385 87.4584 18.8037C87.3185 18.969 87.1405 19.0707 86.9244 19.1089C86.7083 19.147 86.4794 19.1216 86.2506 19.0326C86.009 18.9436 85.7801 18.8164 85.564 18.6385C85.3733 18.4859 85.208 18.3079 85.0682 18.1045C84.9283 17.901 84.8139 17.6722 84.7503 17.4434L85.2462 17.2018C85.297 17.3798 85.3733 17.5578 85.4877 17.7231C85.6022 17.8883 85.7293 18.0282 85.8691 18.1553C86.0726 18.3333 86.2887 18.435 86.5048 18.4605C86.721 18.4859 86.8863 18.435 87.0007 18.2952C87.1024 18.168 87.1278 18.0409 87.0897 17.8883C87.0388 17.7358 86.9371 17.5959 86.7591 17.4434L86.1107 16.9094L86.454 16.5025L87.0642 16.9984C87.2168 17.1255 87.3694 17.1891 87.5092 17.2018C87.6491 17.2145 87.7635 17.1636 87.8652 17.0492C87.9796 16.9221 88.0051 16.7695 87.9415 16.6042C87.8906 16.439 87.7635 16.2737 87.5855 16.1211C87.4584 16.0194 87.3185 15.9304 87.1532 15.8541C86.988 15.7778 86.8227 15.727 86.6447 15.7016L86.8354 15.1422C87.0388 15.1803 87.2422 15.2439 87.4457 15.3456C87.6364 15.4346 87.8144 15.549 87.9796 15.6761C88.1831 15.8414 88.3483 16.0321 88.4755 16.2483C88.5899 16.4517 88.6535 16.6551 88.6535 16.8585C88.6535 17.0619 88.5899 17.2399 88.4501 17.4052C88.3356 17.5451 88.1958 17.6341 88.0305 17.6722C87.8652 17.7103 87.6999 17.7103 87.5219 17.6595C87.6237 17.8883 87.6872 18.079 87.6745 18.2698Z" fill="#683C11"/>
<path d="M92.4803 19.9226L89.251 20.927C88.9713 21.016 88.7043 21.0414 88.4755 21.0033C88.2466 20.9651 88.0559 20.8634 87.8906 20.7108C87.7635 20.5837 87.6618 20.4311 87.5982 20.2531L88.0941 19.9861C88.1576 20.1133 88.2339 20.215 88.2975 20.2786C88.45 20.4311 88.6662 20.4693 88.9205 20.4057L89.0222 20.3803L89.9376 17.4307L90.4461 17.9265L89.6706 20.2023L91.9845 19.4394L92.4803 19.9226Z" fill="#683C11"/>
<path d="M95.1757 23.0375L92.3405 25.4022L91.9083 24.8937L92.9762 24.0037C92.6584 23.8257 92.4041 23.6223 92.2007 23.3935C91.9083 23.0375 91.7557 22.7069 91.7684 22.3636C91.7811 22.0331 91.9464 21.7279 92.277 21.4482L93.1796 20.6981L93.6119 21.2067L92.7728 21.9186C92.5694 22.0839 92.4677 22.2746 92.455 22.4653C92.4422 22.6688 92.5312 22.8722 92.7092 23.0756C92.9127 23.3172 93.1542 23.4952 93.4339 23.6223L94.7434 22.5289L95.1757 23.0375Z" fill="#683C11"/>
<path d="M95.252 28.4281L94.7815 28.7587L93.2305 26.5592L96.2563 24.436L97.7693 26.5846L97.2989 26.9152L96.1673 25.3132L95.3791 25.8599L96.3835 27.2839L95.9258 27.6017L94.9214 26.1778L94.0823 26.7626L95.252 28.4281Z" fill="#683C11"/>
<path d="M100.21 30.6911L97.0065 32.5346L96.676 31.9498L98.0491 31.1615L97.121 29.5469L95.7479 30.3351L95.4173 29.7503L98.6212 27.9068L98.9517 28.4916L97.6295 29.2545L98.5576 30.8691L99.8798 30.1063L100.21 30.6911Z" fill="#683C11"/>
<path d="M101.037 32.3058L101.304 32.9033L98.9135 33.984L102.079 34.6706L102.334 35.2427L98.9771 36.7683L98.7101 36.1708L101.088 35.0901L97.9219 34.4036L97.6676 33.8314L101.037 32.3058Z" fill="#683C11"/>
<path d="M103.834 39.5273L100.35 40.7351L100.147 40.1121L101.113 39.7815L100.833 38.9297L100.808 38.8662L99.6255 38.561L99.4094 37.8872L100.732 38.2432C100.744 37.9762 100.821 37.7473 100.973 37.5439C101.126 37.3532 101.342 37.2006 101.609 37.1116C101.876 37.0226 102.117 36.9972 102.359 37.0481C102.588 37.0989 102.791 37.2134 102.969 37.3913C103.147 37.5693 103.274 37.8109 103.376 38.0906L103.834 39.5273ZM102.448 37.7728C102.283 37.6711 102.079 37.6711 101.838 37.7473C101.609 37.8236 101.456 37.9508 101.38 38.1287C101.304 38.3067 101.304 38.5229 101.38 38.7772L101.647 39.5781L103.084 39.0823L102.829 38.3067C102.74 38.0525 102.613 37.8745 102.448 37.7728Z" fill="#683C11"/>
<path d="M105.385 46.4055L101.774 47.1301L101.66 46.4817L104.698 45.8715L104.368 44.028L101.329 44.6382L101.215 43.9898L104.826 43.2651L105.385 46.4055Z" fill="#683C11"/>
<path d="M105.639 50.4993C105.55 50.7408 105.423 50.9315 105.232 51.0841C105.042 51.224 104.826 51.313 104.559 51.3384C104.292 51.3638 104.063 51.3257 103.847 51.224C103.643 51.1223 103.478 50.957 103.351 50.7408C103.224 50.5247 103.147 50.2577 103.122 49.9399L103.058 49.1262L102.003 49.2406L101.952 48.5668L105.601 48.1854L105.728 49.6729C105.754 49.978 105.728 50.2577 105.639 50.4993ZM103.948 50.4993C104.088 50.6391 104.266 50.69 104.508 50.6646C104.737 50.6391 104.914 50.5501 105.029 50.3849C105.143 50.2196 105.181 49.9907 105.156 49.6983L105.092 48.9101L103.643 49.0626L103.707 49.8509C103.732 50.1433 103.808 50.3594 103.948 50.4993Z" fill="#683C11"/>
<path d="M105.906 52.6226L105.893 53.2837L103.287 53.3218L105.868 55.2416L105.855 55.8646L102.194 55.9154L102.206 55.2543L104.8 55.2162L102.232 53.2964L102.245 52.6734L105.906 52.6226Z" fill="#683C11"/>
<path d="M105.334 59.9584C105.207 60.1873 105.042 60.3526 104.825 60.4543C104.622 60.5687 104.381 60.6068 104.114 60.5814C103.847 60.556 103.63 60.4797 103.44 60.3398C103.262 60.2 103.122 60.0093 103.046 59.7677C102.969 59.5262 102.944 59.2464 102.982 58.9413L103.071 58.1276L102.016 58.0386L102.092 57.3648L105.741 57.6572L105.576 59.1447C105.55 59.4626 105.474 59.7423 105.334 59.9584ZM103.681 59.6406C103.796 59.8059 103.961 59.8949 104.19 59.9076C104.419 59.9203 104.609 59.8694 104.749 59.7296C104.889 59.5897 104.978 59.3736 105.003 59.0812L105.092 58.2929L103.643 58.1785L103.554 58.9667C103.541 59.2592 103.58 59.4753 103.681 59.6406Z" fill="#683C11"/>
<path d="M101.647 62.2215C101.863 61.9545 102.13 61.7638 102.448 61.6493C102.766 61.5349 103.096 61.5095 103.44 61.5731C103.783 61.6366 104.088 61.7765 104.33 61.9926C104.571 62.2087 104.749 62.4757 104.851 62.7936C104.953 63.1114 104.965 63.4547 104.889 63.8234C104.813 64.1921 104.66 64.4972 104.444 64.7642C104.228 65.0312 103.961 65.2219 103.643 65.3363C103.325 65.4508 102.995 65.4762 102.639 65.4126C102.283 65.3491 101.99 65.2092 101.736 64.9931C101.494 64.7769 101.316 64.5099 101.215 64.1921C101.113 63.8743 101.1 63.531 101.177 63.1623C101.278 62.7936 101.431 62.4884 101.647 62.2215ZM101.812 63.9378C101.876 64.1412 102.003 64.3192 102.168 64.4718C102.334 64.6117 102.55 64.7134 102.779 64.7515C103.02 64.7897 103.249 64.7769 103.465 64.7007C103.681 64.6244 103.859 64.4972 104.012 64.332C104.164 64.1667 104.253 63.9505 104.304 63.7217C104.355 63.4801 104.342 63.264 104.279 63.0479C104.215 62.8444 104.088 62.6664 103.923 62.5139C103.758 62.374 103.541 62.2723 103.313 62.2342C103.071 62.196 102.842 62.2087 102.626 62.285C102.41 62.3613 102.232 62.4885 102.079 62.6537C101.927 62.819 101.838 63.0352 101.787 63.264C101.736 63.5056 101.749 63.7217 101.812 63.9378Z" fill="#683C11"/>
<path d="M100.045 69.7608L98.7483 69.3921L98.939 68.7945L99.6891 68.9979L100.516 66.3153L99.7654 66.1119L99.9561 65.5143L101.253 65.883L101.202 66.0356C101.138 66.2517 101.253 66.4552 101.545 66.6332C101.838 66.8112 102.27 66.9891 102.842 67.1799L103.936 67.5358L103.135 70.0913L100.185 69.2649L100.045 69.7608ZM101.507 67.2943C101.227 67.1544 101.037 67.0019 100.948 66.8493L100.401 68.6165L102.804 69.2903L103.224 67.93L102.613 67.7266C102.168 67.5867 101.8 67.4468 101.507 67.2943Z" fill="#683C11"/>
<path d="M101.049 75.2658L100.782 75.8761L97.426 74.5157L97.693 73.9054L101.049 75.2658ZM99.9942 73.88C99.7145 74.0199 99.4094 74.0199 99.0534 73.88C98.6847 73.7274 98.4431 73.4986 98.3541 73.1808C98.2651 72.8629 98.3033 72.4942 98.494 72.0619L99.1169 70.6125L102.473 71.9729L102.206 72.5832L101.075 72.1255L100.668 73.0536C100.503 73.4732 100.274 73.7402 99.9942 73.88ZM98.9135 72.8629C98.9644 73.0409 99.1042 73.168 99.3204 73.257C99.7272 73.4223 100.045 73.2443 100.261 72.7485L100.604 71.9475L99.3331 71.4389L98.9898 72.2399C98.8754 72.4815 98.85 72.6849 98.9135 72.8629Z" fill="#683C11"/>
<path d="M94.3493 80.9108L93.2051 80.2242L93.5357 79.6902L94.1968 80.0844L95.697 77.6942L95.0359 77.3L95.3792 76.7661L96.5234 77.4526L96.4344 77.5925C96.32 77.7959 96.3836 78.012 96.6124 78.2663C96.8413 78.5079 97.2099 78.8003 97.7185 79.1308L98.6848 79.7538L97.2481 82.0423L94.6291 80.4785L94.3493 80.9108ZM96.409 78.8893C96.1674 78.6731 96.0276 78.4824 95.9894 78.3044L94.9978 79.8809L97.121 81.1523L97.8838 79.9318L97.3498 79.5758C96.9557 79.3342 96.6378 79.0927 96.409 78.8893Z" fill="#683C11"/>
<path d="M91.9845 84.0257L91.5268 83.6951L93.205 81.4956L96.1165 83.6188L94.4892 85.7547L94.0314 85.4242L95.252 83.8222L94.5019 83.2628L93.4212 84.6741L92.9762 84.3435L94.0569 82.9323L93.2559 82.3474L91.9845 84.0257Z" fill="#683C11"/>
<path d="M91.2344 89.4418L88.5391 87.0516L88.9968 86.543L90.1537 87.5601L91.4379 86.1489L90.2809 85.1318L90.7386 84.6232L93.4339 87.0134L92.9762 87.522L91.8701 86.5303L90.586 87.9415L91.6921 88.9332L91.2344 89.4418Z" fill="#683C11"/>
<path d="M85.8183 90.3698L85.4369 89.963L87.4838 88.0941L89.9376 90.7258L87.9416 92.5439L87.5601 92.1371L89.0476 90.7767L88.412 90.0901L87.0897 91.2979L86.721 90.8911L88.0433 89.6833L87.3694 88.9586L85.8183 90.3698Z" fill="#683C11"/>
<path d="M84.3816 94.6544L85.831 93.5229L83.9493 91.1581L84.4833 90.7386L86.7082 93.5483L84.7249 95.0994L84.3816 94.6544Z" fill="#683C11"/>
<path d="M26.9406 95.3156C26.4957 95.3156 26.1397 95.6715 26.1397 96.1038C26.1397 96.5361 26.4957 96.8921 26.9406 96.8921C27.3856 96.8921 27.7416 96.5361 27.7416 96.1038C27.7416 95.6715 27.3856 95.3156 26.9406 95.3156Z" fill="#683D14"/>
<path d="M80.4531 95.4681C80.0081 95.4681 79.6521 95.8241 79.6521 96.2563C79.6521 96.6886 80.0081 97.0446 80.4531 97.0446C80.8981 97.0446 81.254 96.6886 81.254 96.2563C81.254 95.8241 80.8981 95.4681 80.4531 95.4681Z" fill="#683D14"/>
<path d="M55.1271 14.4938C56.1804 14.4938 57.0342 13.6399 57.0342 12.5867C57.0342 11.5335 56.1804 10.6796 55.1271 10.6796C54.0739 10.6796 53.22 11.5335 53.22 12.5867C53.22 13.6399 54.0739 14.4938 55.1271 14.4938Z" fill="url(#paint11_linear_839_244)"/>
<path d="M16.8459 78.1519C17.8991 78.1519 18.7529 77.298 18.7529 76.2448C18.7529 75.1915 17.8991 74.3377 16.8459 74.3377C15.7926 74.3377 14.9388 75.1915 14.9388 76.2448C14.9388 77.298 15.7926 78.1519 16.8459 78.1519Z" fill="url(#paint12_linear_839_244)"/>
<path d="M90.8657 80.9362C91.919 80.9362 92.7728 80.0824 92.7728 79.0291C92.7728 77.9759 91.919 77.1221 90.8657 77.1221C89.8125 77.1221 88.9586 77.9759 88.9586 79.0291C88.9586 80.0824 89.8125 80.9362 90.8657 80.9362Z" fill="url(#paint13_linear_839_244)"/>
<path d="M54.6694 98.7737C40.6588 98.7737 27.4364 91.9464 19.2996 80.5039L20.1387 79.9064C28.0721 91.0818 40.9894 97.7439 54.6694 97.7439C67.8283 97.7439 80.0081 91.7811 88.0941 81.3812L88.8951 82.0042C80.6311 92.6711 68.1461 98.7737 54.6694 98.7737Z" fill="url(#paint14_linear_839_244)"/>
<path d="M93.0779 75.5583L92.1752 75.0879C95.341 69.0742 97.0065 62.2723 97.0065 55.4323C97.0065 33.8696 80.8726 15.7779 59.4753 13.375L59.5897 12.3578C81.5083 14.8243 98.0363 33.3484 98.0363 55.4323C98.0236 62.4376 96.3199 69.3921 93.0779 75.5583Z" fill="url(#paint15_linear_839_244)"/>
<path d="M14.71 72.2526C12.4596 66.9255 11.3154 61.2552 11.3154 55.4195C11.3154 33.0813 28.0468 14.5446 50.2324 12.2943L50.3341 13.3114C28.6697 15.5108 12.3325 33.6153 12.3325 55.4195C12.3325 61.1153 13.4513 66.6458 15.6381 71.8585L14.71 72.2526Z" fill="url(#paint16_linear_839_244)"/>
<path d="M58.0132 61.5222C59.7677 60.4924 60.9501 58.5853 60.9501 56.3986C60.9501 53.1184 58.2929 50.4485 55 50.4485C51.7198 50.4485 49.0499 53.1057 49.0499 56.3986C49.0499 58.5853 50.2323 60.4924 51.9868 61.5222L49.9272 72.6214H60.5305L58.0132 61.5222Z" fill="black"/>
<path d="M61.1281 73.0917H49.3678L51.4656 61.751C49.673 60.5686 48.5796 58.5471 48.5796 56.3985C48.5796 52.864 51.4529 49.9907 54.9873 49.9907C58.5218 49.9907 61.3951 52.864 61.3951 56.3985C61.3951 58.5471 60.3017 60.5559 58.5218 61.7383L61.1281 73.0917ZM50.4994 72.1509H59.9584L57.4793 61.2933L57.7717 61.1153C59.4372 60.1364 60.4797 58.331 60.4797 56.3985C60.4797 53.3853 58.0259 50.9188 55.0001 50.9188C51.9869 50.9188 49.5204 53.3726 49.5204 56.3985C49.5204 58.331 50.5502 60.1364 52.2284 61.1153L52.5081 61.2806L50.4994 72.1509Z" fill="url(#paint17_linear_839_244)"/>
<defs>
<linearGradient id="paint0_linear_839_244" x1="0.00964979" y1="54.9999" x2="109.999" y2="54.9999" gradientUnits="userSpaceOnUse">
<stop stop-color="#B78733"/>
<stop offset="0.000371283" stop-color="#7E4F25"/>
<stop offset="0.5032" stop-color="#E0B65C"/>
<stop offset="1" stop-color="#B08236"/>
</linearGradient>
<linearGradient id="paint1_linear_839_244" x1="45.7236" y1="48.0581" x2="54.2038" y2="67.7918" gradientUnits="userSpaceOnUse">
<stop stop-color="#FCF2AA" stop-opacity="0"/>
<stop offset="0.4441" stop-color="#BF933F"/>
<stop offset="0.7095" stop-color="#FCF2AA"/>
<stop offset="1" stop-color="#B08236"/>
</linearGradient>
<linearGradient id="paint2_linear_839_244" x1="55.6262" y1="43.8728" x2="64.0987" y2="63.5888" gradientUnits="userSpaceOnUse">
<stop stop-color="#B78733"/>
<stop offset="0.33" stop-color="#FCF2AA"/>
<stop offset="0.3484" stop-color="#F8ECA3"/>
<stop offset="0.6536" stop-color="#B78733"/>
<stop offset="1" stop-color="#FCF2AA" stop-opacity="0"/>
</linearGradient>
<linearGradient id="paint3_linear_839_244" x1="55.2191" y1="39.1893" x2="41.328" y2="65.5888" gradientUnits="userSpaceOnUse">
<stop stop-color="#FCF2AA" stop-opacity="0"/>
<stop offset="0.4441" stop-color="#BF933F"/>
<stop offset="0.7095" stop-color="#FCF2AA"/>
<stop offset="1" stop-color="#B08236"/>
</linearGradient>
<linearGradient id="paint4_linear_839_244" x1="68.4257" y1="46.1656" x2="54.5471" y2="72.5413" gradientUnits="userSpaceOnUse">
<stop stop-color="#B78733"/>
<stop offset="0.33" stop-color="#FCF2AA"/>
<stop offset="0.3484" stop-color="#F8ECA3"/>
<stop offset="0.6536" stop-color="#B78733"/>
<stop offset="1" stop-color="#FCF2AA" stop-opacity="0"/>
</linearGradient>
<linearGradient id="paint5_linear_839_244" x1="73.2381" y1="41.6084" x2="32.6037" y2="49.689" gradientUnits="userSpaceOnUse">
<stop stop-color="#FCF2AA" stop-opacity="0"/>
<stop offset="0.4441" stop-color="#BF933F"/>
<stop offset="0.7095" stop-color="#FCF2AA"/>
<stop offset="1" stop-color="#B08236"/>
</linearGradient>
<linearGradient id="paint6_linear_839_244" x1="77.2597" y1="61.9961" x2="36.662" y2="70.0693" gradientUnits="userSpaceOnUse">
<stop stop-color="#B78733"/>
<stop offset="0.33" stop-color="#FCF2AA"/>
<stop offset="0.3484" stop-color="#F8ECA3"/>
<stop offset="0.6536" stop-color="#B78733"/>
<stop offset="1" stop-color="#FCF2AA" stop-opacity="0"/>
</linearGradient>
<linearGradient id="paint7_linear_839_244" x1="86.3062" y1="63.2095" x2="42.0671" y2="26.4116" gradientUnits="userSpaceOnUse">
<stop stop-color="#FCF2AA" stop-opacity="0"/>
<stop offset="0.4441" stop-color="#BF933F"/>
<stop offset="0.7095" stop-color="#FCF2AA"/>
<stop offset="1" stop-color="#B08236"/>
</linearGradient>
<linearGradient id="paint8_linear_839_244" x1="67.8362" y1="85.3628" x2="23.6372" y2="48.5982" gradientUnits="userSpaceOnUse">
<stop stop-color="#B78733"/>
<stop offset="0.33" stop-color="#FCF2AA"/>
<stop offset="0.3484" stop-color="#F8ECA3"/>
<stop offset="0.6536" stop-color="#B78733"/>
<stop offset="1" stop-color="#FCF2AA" stop-opacity="0"/>
</linearGradient>
<linearGradient id="paint9_linear_839_244" x1="74.3475" y1="96.1349" x2="75.3981" y2="16.2168" gradientUnits="userSpaceOnUse">
<stop stop-color="#FCF2AA" stop-opacity="0"/>
<stop offset="0.4441" stop-color="#BF933F"/>
<stop offset="0.7095" stop-color="#FCF2AA"/>
<stop offset="1" stop-color="#B08236"/>
</linearGradient>
<linearGradient id="paint10_linear_839_244" x1="34.3628" y1="95.5522" x2="35.4124" y2="15.7063" gradientUnits="userSpaceOnUse">
<stop stop-color="#B78733"/>
<stop offset="0.33" stop-color="#FCF2AA"/>
<stop offset="0.3484" stop-color="#F8ECA3"/>
<stop offset="0.6536" stop-color="#B78733"/>
<stop offset="1" stop-color="#FCF2AA" stop-opacity="0"/>
</linearGradient>
<linearGradient id="paint11_linear_839_244" x1="55.0308" y1="10.4273" x2="55.204" y2="14.558" gradientUnits="userSpaceOnUse">
<stop stop-color="#B78733"/>
<stop offset="0.000371283" stop-color="#7E4F25"/>
<stop offset="0.5032" stop-color="#E0B65C"/>
<stop offset="1" stop-color="#B08236"/>
</linearGradient>
<linearGradient id="paint12_linear_839_244" x1="15.0564" y1="77.2385" x2="18.6181" y2="75.2721" gradientUnits="userSpaceOnUse">
<stop stop-color="#B78733"/>
<stop offset="0.000371283" stop-color="#7E4F25"/>
<stop offset="0.5032" stop-color="#E0B65C"/>
<stop offset="1" stop-color="#B08236"/>
</linearGradient>
<linearGradient id="paint13_linear_839_244" x1="92.6065" y1="80.3455" x2="88.8221" y2="77.4886" gradientUnits="userSpaceOnUse">
<stop stop-color="#B78733"/>
<stop offset="0.000371283" stop-color="#7E4F25"/>
<stop offset="0.5032" stop-color="#E0B65C"/>
<stop offset="1" stop-color="#B08236"/>
</linearGradient>
<linearGradient id="paint14_linear_839_244" x1="19.3093" y1="89.3441" x2="88.9103" y2="89.3441" gradientUnits="userSpaceOnUse">
<stop stop-color="#B78733"/>
<stop offset="0.000371283" stop-color="#7E4F25"/>
<stop offset="0.5032" stop-color="#E0B65C"/>
<stop offset="1" stop-color="#B08236"/>
</linearGradient>
<linearGradient id="paint15_linear_839_244" x1="59.4689" y1="43.9514" x2="98.0276" y2="43.9514" gradientUnits="userSpaceOnUse">
<stop stop-color="#B78733"/>
<stop offset="0.000371283" stop-color="#7E4F25"/>
<stop offset="0.5032" stop-color="#E0B65C"/>
<stop offset="1" stop-color="#B08236"/>
</linearGradient>
<linearGradient id="paint16_linear_839_244" x1="11.3223" y1="42.2761" x2="50.3463" y2="42.2761" gradientUnits="userSpaceOnUse">
<stop stop-color="#B78733"/>
<stop offset="0.000371283" stop-color="#7E4F25"/>
<stop offset="0.5032" stop-color="#E0B65C"/>
<stop offset="1" stop-color="#B08236"/>
</linearGradient>
<linearGradient id="paint17_linear_839_244" x1="48.5909" y1="61.5342" x2="61.4179" y2="61.5342" gradientUnits="userSpaceOnUse">
<stop offset="0.1454" stop-color="#EDC141"/>
<stop offset="0.2628" stop-color="#F2EEA0"/>
<stop offset="0.7526" stop-color="#F2EEA0"/>
<stop offset="0.8648" stop-color="#EDC141"/>
</linearGradient>
</defs>
</svg>
