<svg width="110" height="110" viewBox="0 0 110 110" fill="none" xmlns="http://www.w3.org/2000/svg">
<path d="M50.5483 46.2271C50.5874 46.2141 50.6397 46.188 50.6788 46.1749L51.3577 47.7415C49.1775 48.6815 47.4934 50.4047 46.6057 52.611C45.731 54.8172 45.7571 57.2324 46.6971 59.4125C48.6292 63.9164 53.8642 65.9922 58.3681 64.06L59.047 65.6266C57.7284 66.188 56.3446 66.4752 54.9347 66.4882C53.5639 66.5013 52.2193 66.2402 50.9399 65.7311C49.6605 65.2219 48.5117 64.4778 47.5196 63.5379C46.5013 62.5587 45.6919 61.3969 45.1305 60.0783C44.5692 58.7598 44.282 57.376 44.2689 55.9661C44.2558 54.5953 44.5169 53.2506 45.0261 51.9843C45.5352 50.705 46.2793 49.5561 47.2193 48.577C48.1723 47.5718 49.282 46.7885 50.5483 46.2271Z" fill="url(#paint0_linear_841_1281)"/>
<path d="M50.6788 46.1749C51.9974 45.6135 53.3812 45.3263 54.7911 45.3133C56.1619 45.3002 57.5065 45.5613 58.7859 46.0705C60.0653 46.5796 61.2141 47.3237 62.2063 48.2637C63.2245 49.2428 64.0339 50.4047 64.5953 51.7232C65.1566 53.0417 65.4439 54.4255 65.4569 55.8355C65.47 57.2062 65.2089 58.5509 64.6997 59.8172C64.1906 61.0966 63.4465 62.2454 62.5065 63.2245C61.5274 64.2428 60.3655 65.0522 59.047 65.6135L58.3681 64.047C60.5483 63.107 62.2324 61.3838 63.1201 59.1775C63.9948 56.9712 63.9686 54.5561 63.0287 52.3759C61.0966 47.872 55.8616 45.7963 51.3577 47.7284L50.6788 46.1749Z" fill="url(#paint1_linear_841_1281)"/>
<path d="M61.5275 42.7937C61.5927 42.8198 61.6449 42.859 61.7102 42.8851L60.6006 44.9869C57.6893 43.4465 54.3473 43.1462 51.188 44.1253C48.0418 45.1044 45.457 47.2454 43.9295 50.1566C40.7572 56.1749 43.081 63.6553 49.1123 66.8146L48.0026 68.9164C46.2402 67.9895 44.7259 66.7493 43.4726 65.2219C42.2716 63.7467 41.3708 62.0757 40.7964 60.2611C40.235 58.4334 40.0261 56.5535 40.1828 54.6605C40.3525 52.7023 40.9008 50.8094 41.8277 49.06C42.7546 47.2976 43.9948 45.7833 45.5222 44.53C46.9974 43.329 48.6684 42.4282 50.4831 41.8668C52.3107 41.3055 54.1906 41.0966 56.0836 41.2532C57.9896 41.3968 59.8173 41.919 61.5275 42.7937Z" fill="url(#paint2_linear_841_1281)"/>
<path d="M61.6971 42.8851C63.4595 43.812 64.9738 45.0522 66.2271 46.5796C67.4282 48.0548 68.3289 49.7258 68.9033 51.5404C69.4647 53.3681 69.6736 55.248 69.5169 57.1409C69.3472 59.0992 68.7989 60.9921 67.872 62.7415C66.9451 64.5039 65.7049 66.0182 64.1775 67.2715C62.7023 68.4725 61.0313 69.3733 59.2167 69.9347C57.389 70.496 55.5091 70.7049 53.6161 70.5483C51.6579 70.3785 49.765 69.8302 48.0156 68.9033L49.1253 66.8015C52.0496 68.342 55.3785 68.6422 58.5378 67.6631C61.684 66.684 64.2689 64.543 65.7963 61.6318C68.9686 55.6135 66.6449 48.1331 60.6135 44.9738L61.6971 42.8851Z" fill="url(#paint3_linear_841_1281)"/>
<path d="M74.8304 51.6318C74.8434 51.7232 74.8695 51.8146 74.8826 51.906L71.658 52.5457C70.7703 48.0548 68.1724 44.1775 64.3734 41.6318C60.5745 39.0861 56.0053 38.1723 51.5144 39.0731C42.2455 40.9138 36.2142 49.9608 38.0549 59.2297L34.8304 59.8694C34.2951 57.1671 34.2951 54.4386 34.8565 51.7493C35.3917 49.1645 36.41 46.7363 37.8852 44.53C39.3604 42.3237 41.2142 40.4569 43.3943 38.9686C45.6528 37.4282 48.1724 36.3838 50.8747 35.8355C53.5771 35.3002 56.3056 35.3002 58.9818 35.8616C61.5667 36.3968 63.9949 37.4151 66.2011 38.8903C68.4074 40.3655 70.2742 42.2193 71.7625 44.4125C73.2507 46.6057 74.2821 49.0339 74.8304 51.6318Z" fill="url(#paint4_linear_841_1281)"/>
<path d="M74.8825 51.906C75.4178 54.6084 75.4178 57.3368 74.8564 60.0261C74.3212 62.611 73.3029 65.0392 71.8277 67.2454C70.3525 69.4517 68.4987 71.3185 66.3186 72.8068C64.0601 74.3473 61.5405 75.3916 58.8382 75.9399C56.1358 76.4752 53.4073 76.4752 50.7311 75.9138C48.1462 75.3786 45.7181 74.3603 43.5118 72.8851C41.3055 71.4099 39.4387 69.5561 37.9504 67.3629C36.41 65.1044 35.3656 62.5849 34.8303 59.8695L38.0549 59.2298C38.9426 63.7206 41.5405 67.5979 45.3395 70.1436C49.1384 72.6893 53.7076 73.6031 58.1985 72.7024C67.4674 70.8616 73.4987 61.8146 71.658 52.5457L74.8825 51.906Z" fill="url(#paint5_linear_841_1281)"/>
<path d="M76.919 73.7336C76.8407 73.8381 76.7624 73.9295 76.671 74.0339L73.1593 71.1096C77.2324 66.2271 79.1514 60.0391 78.5639 53.7075C77.9895 47.3759 74.9739 41.6579 70.0914 37.5848C60 29.1906 44.9739 30.5874 36.5666 40.6788L33.0548 37.7545C35.5091 34.8041 38.4595 32.4282 41.8407 30.6919C45.1044 29.0078 48.6162 27.9765 52.2846 27.637C55.953 27.2976 59.5953 27.6632 63.107 28.7206C66.7493 29.8172 70.0783 31.6188 73.0287 34.06C75.966 36.5143 78.342 39.4647 80.0914 42.8329C81.7754 46.0966 82.7937 49.6083 83.1331 53.2767C83.4726 56.9451 83.094 60.5874 82.0365 64.0992C80.953 67.637 79.2428 70.8616 76.919 73.7336Z" fill="url(#paint6_linear_841_1281)"/>
<path d="M76.658 74.0208C74.2037 76.9712 71.2534 79.3472 67.8722 81.0835C64.6085 82.7676 61.0967 83.7989 57.4283 84.1383C53.7599 84.4778 50.1176 84.1122 46.6058 83.0548C42.9635 81.9582 39.6346 80.1566 36.6842 77.7154C33.7468 75.261 31.3708 72.3107 29.6215 68.9425C27.9374 65.6788 26.9192 62.1671 26.5797 58.4986C26.2403 54.8302 26.6189 51.1879 27.6763 47.6762C28.7729 44.0339 30.5745 40.7049 33.0288 37.7545L36.5406 40.6788C32.4675 45.5744 30.5484 51.7493 31.1359 58.0809C31.7103 64.4125 34.7259 70.1305 39.6084 74.2036C49.6998 82.5979 64.7259 81.201 73.1332 71.1096L76.658 74.0208Z" fill="url(#paint7_linear_841_1281)"/>
<path d="M54.8825 95.3003C54.6998 95.3003 54.5301 95.3003 54.3473 95.3003L54.4256 88.9556C63.2637 89.0731 71.6058 85.7441 77.9374 79.5822C84.269 73.4204 87.8068 65.1697 87.9243 56.3446C88.1593 38.1201 73.5248 23.107 55.2872 22.872L55.3656 16.5274C60.6789 16.5927 65.8355 17.7023 70.6658 19.8303C75.3394 21.8799 79.517 24.765 83.081 28.4334C86.658 32.1018 89.4387 36.3446 91.3577 41.0574C93.3551 45.9399 94.3212 51.1097 94.2559 56.436C94.1906 61.7493 93.081 66.8929 90.953 71.7232C88.9034 76.3838 86.0052 80.5614 82.3368 84.1253C78.6684 87.6893 74.4126 90.483 69.6998 92.4021C65 94.3211 60.0131 95.3003 54.8825 95.3003Z" fill="url(#paint8_linear_841_1281)"/>
<path d="M54.3473 95.2741C49.034 95.2089 43.8773 94.0992 39.047 91.9713C34.3734 89.9217 30.1959 87.0365 26.6319 83.3681C23.0549 79.6997 20.2742 75.4569 18.3551 70.731C16.3577 65.8485 15.3917 60.6788 15.457 55.3525C15.5222 50.0391 16.6319 44.8955 18.7598 40.0653C20.8094 35.4047 23.7076 31.2271 27.376 27.6632C31.0444 24.0992 35.3003 21.3055 40.0131 19.3864C44.8956 17.4021 50.0784 16.423 55.3917 16.4882L55.3134 22.8329C46.4752 22.7154 38.1332 26.0444 31.8016 32.2062C25.47 38.3681 21.9322 46.6188 21.8147 55.4438C21.5797 73.6684 36.2141 88.6814 54.4517 88.9164L54.3473 95.2741Z" fill="url(#paint9_linear_841_1281)"/>
<path d="M55 110C47.5718 110 40.3786 108.551 33.5901 105.679C27.0366 102.911 21.1619 98.9426 16.1097 93.8903C11.0574 88.8381 7.08877 82.9634 4.32115 76.4099C1.44908 69.6345 0 62.4282 0 55C0 47.5718 1.44908 40.3786 4.32115 33.5901C7.08877 27.0366 11.0574 21.1619 16.1097 16.1097C21.1619 11.0574 27.0366 7.08877 33.5901 4.32115C40.3655 1.44908 47.5718 0 55 0C62.4282 0 69.6214 1.44908 76.4099 4.32115C82.9634 7.08877 88.8381 11.0574 93.8903 16.1097C98.9426 21.1619 102.911 27.0366 105.679 33.5901C108.551 40.3655 110 47.5718 110 55C110 62.4282 108.551 69.6214 105.679 76.4099C102.911 82.9634 98.9426 88.8381 93.8903 93.8903C88.8381 98.9426 82.9634 102.911 76.4099 105.679C69.6345 108.551 62.4282 110 55 110ZM55 0.613571C25 0.613571 0.600519 25.0261 0.600519 55.0131C0.600519 85 25.0131 109.413 55 109.413C84.9869 109.413 109.399 85 109.399 55.0131C109.399 25.0261 85 0.613571 55 0.613571Z" fill="url(#paint10_linear_841_1281)"/>
<path d="M35.9921 97.9504L33.8511 102.272L32.859 101.815L33.7336 100.039L31.8015 99.1253L30.9269 100.901L29.9347 100.444L32.0757 96.1227L33.0679 96.5796L32.2323 98.2898L34.1645 99.2037L35 97.4935L35.9921 97.9504Z" fill="#FFE777"/>
<path d="M37.5196 98.5509L38.5509 98.8773L37.5326 101.841L40.6919 99.5561L41.671 99.8695L40.1044 104.413L39.0731 104.086L40.0914 101.136L36.9321 103.407L35.953 103.094L37.5196 98.5509Z" fill="#FFE777"/>
<path d="M43.2506 100.261L44.3211 100.457L43.6814 103.512L46.5404 100.849L47.5587 101.031L46.5796 105.731L45.5091 105.535L46.1357 102.48L43.2767 105.131L42.2584 104.948L43.2506 100.261Z" fill="#FFE777"/>
<path d="M56.4883 105.248L56.4361 107.141H55.4178L55.4439 106.149L52.0888 106.162L52.0627 107.154H51.0444L51.0966 105.261H51.2925C51.5797 105.248 51.7886 105.039 51.9191 104.634C52.0496 104.23 52.128 103.642 52.1802 102.885L52.2716 101.397L55.9269 101.384L55.8356 105.248H56.4883ZM52.9635 104.413C52.8852 104.791 52.7677 105.078 52.611 105.261H54.7389L54.8173 102.285H53.1854L53.1463 102.977C53.1071 103.551 53.0418 104.021 52.9635 104.413Z" fill="#FFE777"/>
<path d="M61.8276 104.661L61.906 105.535L58.2376 105.979L57.7937 101.24L61.3707 100.809L61.4491 101.684L58.9556 101.984L59.047 103.016L61.2532 102.755L61.3316 103.603L59.1253 103.864L59.2297 104.961L61.8276 104.661Z" fill="#FFE777"/>
<path d="M67.0888 99.5431L68.094 104.178L67.0235 104.439L66.6057 102.533L64.4909 103.042L64.9086 104.948L63.8381 105.209L62.8329 100.574L63.9034 100.313L64.295 102.141L66.4099 101.632L66.0183 99.8042L67.0888 99.5431Z" fill="#FFE777"/>
<path d="M73.4335 101.384L73.7207 102.219L70.235 103.499L68.6815 99.0339L72.0888 97.7807L72.376 98.6162L70.0131 99.4908L70.3525 100.457L72.4413 99.6867L72.7155 100.496L70.6267 101.266L70.9792 102.298L73.4335 101.384Z" fill="#FFE777"/>
<path d="M76.8669 96.4883L74.8173 97.4935L76.4491 100.953L75.457 101.436L73.4465 97.1671L76.5014 95.6789L76.8669 96.4883Z" fill="#FFE777"/>
<path d="M18.5249 91.3708L21.0706 88.6945L21.4492 89.047L20.3134 90.248L21.8408 91.658L22.9766 90.4569L23.3552 90.8094L20.8095 93.4856L20.4309 93.1332L21.5275 91.9843L20.0001 90.5744L18.9035 91.7232L18.5249 91.3708Z" fill="#FFE777"/>
<path d="M17.7155 86.4099L18.9949 87.846L19.9609 87.5326L20.3134 87.9243L16.4361 89.1253L16.0967 88.7467L17.7938 85.0914L18.1593 85.4961L17.7155 86.4099ZM17.5197 86.8277L16.6711 88.6031L18.551 87.9896L17.5197 86.8277Z" fill="#FFE777"/>
<path d="M12.4935 84.1906L15.9139 83.6815C16.188 83.6423 16.423 83.6553 16.6189 83.7206C16.8147 83.7859 16.9844 83.9034 17.1019 84.0601C17.1933 84.1906 17.2585 84.3342 17.2977 84.517L16.88 84.6606C16.8408 84.53 16.7886 84.4256 16.7363 84.3473C16.6058 84.1645 16.3839 84.0861 16.0967 84.1123L15.94 84.1253L14.5431 86.9582L14.2168 86.5143L15.4178 84.1775L12.8068 84.5953L12.4935 84.1906Z" fill="#FFE777"/>
<path d="M10.3656 80.7572L13.5379 78.8251L13.799 79.2559L12.5458 80.0131C12.8721 80.2611 13.1202 80.5222 13.2899 80.7964C13.5249 81.175 13.6032 81.5274 13.5379 81.8408C13.4726 82.1671 13.2768 82.4282 12.9244 82.6371L11.893 83.2637L11.6319 82.8329L12.611 82.2324C12.846 82.0888 12.9896 81.906 13.0288 81.6971C13.068 81.4752 13.0157 81.2402 12.8591 80.9922C12.6894 80.705 12.4413 80.4569 12.1411 80.2611L10.6267 81.1749L10.3656 80.7572Z" fill="#FFE777"/>
<path d="M8.09399 76.2924L11.423 74.6736L11.6449 75.1436L10.1567 75.8616L11.0574 77.7285L12.5457 77.0105L12.7676 77.4804L9.43864 79.0992L9.21671 78.6292L10.6527 77.9243L9.75195 76.0575L8.31592 76.7624L8.09399 76.2924Z" fill="#FFE777"/>
<path d="M10.4048 72.6893C10.3526 73.0157 10.209 73.3159 10.0001 73.577C9.79122 73.8381 9.51707 74.0209 9.17765 74.1514C8.83822 74.282 8.51185 74.3081 8.18548 74.2559C7.85911 74.2037 7.57191 74.0601 7.31081 73.8381C7.06277 73.6162 6.86694 73.342 6.74945 72.9896C6.63195 72.6501 6.59279 72.3107 6.64501 71.9843C6.69723 71.658 6.82778 71.3577 7.04971 71.0966C7.25859 70.8355 7.53274 70.6527 7.87217 70.5222C8.21159 70.3916 8.53796 70.3655 8.86433 70.4178C9.1907 70.47 9.47791 70.6136 9.72595 70.8355C9.974 71.0574 10.1698 71.3316 10.2873 71.671C10.4309 72.0235 10.4701 72.3629 10.4048 72.6893ZM9.4518 71.2272C9.26903 71.0705 9.0471 70.9661 8.79906 70.9269C8.55101 70.8877 8.30297 70.9138 8.05493 71.0052C7.80689 71.0966 7.59802 71.2402 7.44136 71.436C7.2847 71.6319 7.18026 71.8407 7.12804 72.0888C7.08887 72.3368 7.10193 72.5718 7.19331 72.8329C7.2847 73.081 7.4283 73.2898 7.61107 73.4465C7.79384 73.6031 8.01577 73.7076 8.26381 73.7467C8.51185 73.7859 8.7599 73.7598 9.00794 73.6684C9.25598 73.577 9.46485 73.4334 9.62151 73.2376C9.77817 73.0418 9.88261 72.8329 9.93483 72.5849C9.97399 72.3368 9.96094 72.0888 9.86955 71.8407C9.77817 71.5927 9.63456 71.3838 9.4518 71.2272Z" fill="#FFE777"/>
<path d="M7.32379 69.3864L6.95825 68.0418L7.37601 67.9243L7.74154 69.2689L7.32379 69.3864Z" fill="#FFE777"/>
<path d="M5.0262 66.8799L4.93481 66.3708L7.72854 65.7963L4.54317 64.2559L4.45178 63.7859L8.06797 63.0418L8.15936 63.5379L5.37867 64.1123L8.551 65.6527L8.64238 66.1227L5.0262 66.8799Z" fill="#FFE777"/>
<path d="M7.61098 60.8877C7.46738 61.2011 7.27155 61.4491 6.9974 61.6449C6.72325 61.8407 6.40993 61.9582 6.05745 61.9974C5.70497 62.0366 5.3786 61.9843 5.07834 61.8538C4.77808 61.7232 4.53004 61.5144 4.34727 61.2402C4.1645 60.9661 4.04701 60.6397 4.0209 60.2872C3.99479 60 4.0209 59.7389 4.09923 59.4909C4.17755 59.2428 4.29505 59.034 4.47782 58.8512L4.8303 59.1514C4.5692 59.4517 4.45171 59.8042 4.47782 60.2219C4.50393 60.4961 4.58225 60.7311 4.72586 60.9269C4.86946 61.1358 5.05223 61.2794 5.27416 61.3838C5.49609 61.4883 5.74414 61.5144 6.00524 61.4883C6.26633 61.4622 6.50131 61.3708 6.71019 61.2272C6.91907 61.0836 7.06267 60.8877 7.16711 60.6658C7.27155 60.4308 7.31072 60.1828 7.28461 59.9217C7.24544 59.517 7.07573 59.1906 6.76241 58.9556L7.06267 58.5901C7.27155 58.7337 7.42821 58.9165 7.5457 59.1514C7.6632 59.3734 7.72847 59.6345 7.75458 59.9086C7.8068 60.248 7.75458 60.5744 7.61098 60.8877Z" fill="#FFE777"/>
<path d="M7.38908 56.7755C7.21937 57.0757 6.99744 57.3107 6.71023 57.4804C6.42303 57.6501 6.09666 57.7415 5.74418 57.7546C5.3917 57.7676 5.06533 57.6893 4.77812 57.5196C4.49091 57.3629 4.26898 57.1279 4.11233 56.8407C3.95567 56.5535 3.86428 56.2272 3.87733 55.8616C3.87733 55.5744 3.92956 55.3133 4.02094 55.0783C4.11232 54.8433 4.25593 54.6345 4.45175 54.4648L4.77812 54.7911C4.49091 55.0653 4.33425 55.4178 4.33425 55.8225C4.33425 56.0966 4.39953 56.3316 4.51702 56.5535C4.63452 56.7755 4.80423 56.9321 5.02616 57.0496C5.23504 57.1671 5.48308 57.2193 5.74418 57.2193C6.00528 57.2193 6.25332 57.141 6.4622 57.0235C6.68413 56.893 6.85384 56.7232 6.97133 56.5013C7.08882 56.2794 7.1541 56.0313 7.1541 55.7702C7.1541 55.3655 7.01049 55.0261 6.71023 54.752L7.0366 54.4125C7.21937 54.5692 7.36297 54.7781 7.46741 55.0131C7.57185 55.248 7.61102 55.5091 7.61102 55.7963C7.63713 56.1488 7.5588 56.4883 7.38908 56.7755Z" fill="#FFE777"/>
<path d="M4.29503 50.1044L7.95038 50.3525L7.89817 50.8616L4.68668 50.6397L4.53002 52.2454L5.60052 52.3499C6.10965 52.4021 6.51435 52.4674 6.81461 52.5587C7.12793 52.6501 7.34986 52.7676 7.49347 52.9112C7.63707 53.0548 7.70235 53.2506 7.67624 53.4856C7.66318 53.5901 7.63707 53.6945 7.5979 53.812L7.14098 53.7467C7.15404 53.6945 7.1671 53.6423 7.18015 53.577C7.19321 53.4334 7.14099 53.3029 7.03655 53.2115C6.91905 53.107 6.74934 53.0287 6.51435 52.9765C6.27937 52.9112 5.96605 52.859 5.5744 52.8198L4.03394 52.6501L4.29503 50.1044Z" fill="#FFE777"/>
<path d="M8.22456 46.1096L8.66842 46.1749L8.17234 48.7859L4.55615 48.2115L5.03918 45.6788L5.48305 45.7441L5.10446 47.7676L6.21412 47.9504L6.55354 46.1488L6.99741 46.2141L6.65798 48.0157L7.81986 48.1984L8.22456 46.1096Z" fill="#FFE777"/>
<path d="M9.47784 41.4752L10.6919 41.7755L10.5614 42.2454L9.79116 42.0496L8.9687 44.9478L9.73894 45.1436L9.60839 45.6136L8.39429 45.3003L8.44651 45.1306C8.49873 44.9086 8.36818 44.6997 8.05486 44.53C7.74155 44.3473 7.28463 44.1776 6.67105 44.0078L5.54834 43.6815L6.2533 41.201L9.36034 41.9843L9.47784 41.4752ZM8.04181 44.0078C8.35513 44.1514 8.55095 44.3081 8.62928 44.4778L9.19063 42.4804L6.52745 41.8146L6.08358 43.3681L6.81465 43.577C7.32379 43.7206 7.72849 43.8642 8.04181 44.0078Z" fill="#FFE777"/>
<path d="M10.3525 39.8042C10.0914 40.0261 9.79111 40.1697 9.46474 40.235C9.13837 40.3003 8.81199 40.2611 8.47256 40.1436C8.14619 40.0261 7.87205 39.8433 7.67622 39.5822C7.46735 39.3212 7.34985 39.034 7.31069 38.7076C7.27152 38.3812 7.31069 38.0418 7.45429 37.6893C7.58484 37.3499 7.78066 37.0627 8.04176 36.8407C8.30285 36.6188 8.59006 36.4752 8.92948 36.423C9.25585 36.3577 9.58223 36.3969 9.92166 36.5144C10.248 36.6319 10.5222 36.8277 10.731 37.0757C10.9399 37.3238 11.0574 37.624 11.0966 37.9504C11.1358 38.2768 11.0966 38.6162 10.953 38.9556C10.8094 39.3081 10.6136 39.5823 10.3525 39.8042ZM10.6136 38.0548C10.5744 37.8068 10.483 37.5979 10.3264 37.4152C10.1697 37.2324 9.97387 37.0888 9.72583 36.9974C9.47779 36.906 9.22975 36.8799 8.98171 36.9321C8.73366 36.9713 8.51173 37.0757 8.32896 37.2324C8.13314 37.389 7.98954 37.5979 7.8851 37.846C7.78066 38.094 7.75455 38.342 7.79371 38.5901C7.83288 38.8381 7.92426 39.047 8.08092 39.2428C8.23758 39.4256 8.4334 39.5692 8.68145 39.6606C8.92949 39.752 9.17752 39.7781 9.42557 39.7259C9.67361 39.6867 9.89554 39.5823 10.0914 39.4125C10.2872 39.2559 10.4308 39.047 10.5352 38.799C10.6136 38.5509 10.6397 38.3029 10.6136 38.0548Z" fill="#FFE777"/>
<path d="M12.0627 32.7285C12.2585 32.6762 12.4543 32.7023 12.6763 32.8068C12.9635 32.9373 13.1332 33.1462 13.1724 33.4334C13.2246 33.7206 13.1463 34.06 12.9374 34.4517L12.1671 35.953L8.89038 34.3864L9.6084 32.9765C9.79116 32.611 10.0131 32.376 10.2611 32.2324C10.5092 32.1018 10.7703 32.1018 11.0444 32.2324C11.2272 32.3238 11.3447 32.4282 11.4361 32.5849C11.5144 32.7285 11.5405 32.8982 11.5275 33.094C11.6972 32.8982 11.8799 32.7807 12.0627 32.7285ZM10.5875 34.6084L11.0575 33.6945C11.175 33.4726 11.2141 33.2637 11.188 33.107C11.1619 32.9373 11.0575 32.8198 10.8878 32.7415C10.7181 32.6632 10.5483 32.6501 10.3917 32.7285C10.235 32.8068 10.1045 32.9634 9.98699 33.1854L9.51701 34.0992L10.5875 34.6084ZM12.4021 33.2637C12.2194 33.1723 12.0496 33.1723 11.893 33.2506C11.7363 33.329 11.5927 33.4987 11.4752 33.7467L10.953 34.7781L12.0627 35.3133L12.5849 34.282C12.8329 33.7859 12.7677 33.4465 12.4021 33.2637Z" fill="#FFE777"/>
<path d="M14.752 29.5822L13.7076 31.2402L14.269 32.0496L13.9818 32.5065L11.7755 29.2297L12.0497 28.7859L16.0575 29.2297L15.7572 29.6997L14.752 29.5822ZM14.2951 29.53L12.3499 29.295L13.4465 30.8877L14.2951 29.53Z" fill="#FFE777"/>
<path d="M15.5483 24.6214L14.7911 25.6397L17.3629 27.4935L17.0496 27.9112L14.4778 26.0574L13.7206 27.0626L13.3551 26.8015L15.1828 24.3603L15.5483 24.6214Z" fill="#FFE777"/>
<path d="M20.2612 23.3029L20.6006 23.5901L18.8251 25.6136L16.0706 23.2637L17.8068 21.3055L18.1463 21.5927L16.7625 23.1593L17.611 23.8773L18.8382 22.4804L19.1776 22.7676L17.9505 24.1645L18.8382 24.9217L20.2612 23.3029Z" fill="#FFE777"/>
<path d="M21.1749 18.0026L23.6945 20.5875L23.3159 20.94L21.1097 18.6815L19.9217 19.8172L20.6266 20.6005C20.9661 20.9661 21.2141 21.2924 21.3838 21.5535C21.5535 21.8146 21.6449 22.0627 21.6449 22.2716C21.658 22.4804 21.5666 22.6632 21.3969 22.8329C21.3185 22.9112 21.2272 22.9765 21.1227 23.0287L20.8355 22.6763C20.8877 22.6501 20.9269 22.611 20.9791 22.5718C21.0836 22.4674 21.1358 22.3368 21.1227 22.1932C21.1097 22.0496 21.0313 21.8669 20.9008 21.671C20.7702 21.4752 20.5744 21.2272 20.3133 20.94L19.295 19.8042L21.1749 18.0026Z" fill="#FFE777"/>
<path d="M25.705 16.2794C26.0052 16.2794 26.2794 16.436 26.5144 16.7232C26.7624 17.0365 26.8538 17.3499 26.7755 17.6632C26.7102 17.9765 26.4883 18.2898 26.1227 18.577L24.9217 19.53L22.6632 16.7232L23.081 16.3969L23.8643 17.376L24.7259 16.6841C25.0653 16.4099 25.3917 16.2794 25.705 16.2794ZM26.2794 17.6762C26.3186 17.4673 26.2663 17.2585 26.1097 17.0626C25.7964 16.671 25.3917 16.6841 24.8956 17.0757L24.1254 17.6893L25.0914 18.8903L25.8616 18.2768C26.0836 18.0809 26.2272 17.8851 26.2794 17.6762Z" fill="#FFE777"/>
<path d="M28.7207 16.4229C28.3813 16.4491 28.068 16.3968 27.7677 16.2663C27.4675 16.1227 27.2325 15.9138 27.0366 15.6135C26.8408 15.3263 26.7364 15.013 26.7233 14.6867C26.7103 14.3603 26.7886 14.047 26.9453 13.7467C27.1019 13.4464 27.35 13.1984 27.6502 12.9895C27.8983 12.8329 28.1463 12.7284 28.3944 12.6632C28.6424 12.6109 28.8904 12.6109 29.1385 12.6762L29.034 13.1331C28.6424 13.0548 28.2769 13.1201 27.9244 13.3551C27.6894 13.5117 27.5197 13.6945 27.4022 13.9164C27.2847 14.1384 27.2325 14.3733 27.2455 14.6214C27.2586 14.8694 27.3369 15.0914 27.4805 15.3133C27.6241 15.5352 27.8069 15.6919 28.0288 15.7963C28.2507 15.9008 28.4857 15.9399 28.7338 15.9269C28.9818 15.9008 29.2299 15.8224 29.4518 15.6658C29.7912 15.4438 30.0132 15.1305 30.0915 14.7258L30.5615 14.8041C30.5223 15.0522 30.4309 15.2872 30.2742 15.4961C30.1306 15.7049 29.9348 15.9008 29.6868 16.0574C29.3865 16.2793 29.0601 16.3968 28.7207 16.4229Z" fill="#FFE777"/>
<path d="M32.2715 12.6371L31.5927 13.0026L32.3498 14.3995L31.8929 14.6475L30.1827 11.4752L30.6397 11.2272L31.3838 12.5979L32.0757 12.2193L32.3629 10.2872L32.859 10.0131L32.5196 12.1802L34.6214 13.1462L34.0861 13.4334L32.2715 12.6371Z" fill="#FFE777"/>
<path d="M34.0992 9.42561L34.5823 9.21674L35.6658 11.7755L36.5927 8.34206L37.0366 8.14624L38.4465 11.4622L37.9635 11.671L36.8799 9.1123L35.94 12.5457L35.4961 12.7415L34.0992 9.42561Z" fill="#FFE777"/>
<path d="M38.9034 7.45433L39.3995 7.29767L40.222 9.96086L41.4883 6.63188L41.9583 6.48827L43.0157 9.93475L42.5196 10.0914L41.7102 7.42822L40.4309 10.7572L39.9609 10.9008L38.9034 7.45433ZM39.6476 6.74937C39.4648 6.68409 39.3343 6.54049 39.269 6.31856L39.6215 6.20107C39.6606 6.33162 39.7389 6.40994 39.8564 6.44911C39.9609 6.48827 40.1045 6.48827 40.2611 6.43605C40.4178 6.38384 40.5222 6.31856 40.6006 6.21412C40.6658 6.10968 40.6919 6.00525 40.6528 5.8747L41.0053 5.7572C41.0705 5.96608 41.0444 6.16191 40.9269 6.33162C40.8094 6.50133 40.6267 6.61882 40.3525 6.7102C40.0653 6.80159 39.8434 6.81464 39.6476 6.74937Z" fill="#FFE777"/>
<path d="M45.8748 5.49606L46.3969 5.40467L46.8278 8.15925L48.5641 5.02609L49.0471 4.94775L49.5954 8.52478L49.0862 8.61617L48.6685 5.86159L46.9322 8.99475L46.4492 9.07308L45.8748 5.49606Z" fill="#FFE777"/>
<path d="M54.1515 4.47778L54.3342 8.09397L53.812 8.13314L53.7337 6.51433L51.6188 6.67099L51.6972 8.2898L51.175 8.32896L50.9922 4.71277L51.5144 4.67361L51.5927 6.22713L53.7076 6.07047L53.6293 4.51695L54.1515 4.47778Z" fill="#FFE777"/>
<path d="M56.5927 7.88513C56.3055 7.71542 56.0836 7.49348 55.9269 7.20628C55.7703 6.91907 55.705 6.60576 55.7181 6.25328C55.7311 5.9008 55.8355 5.58748 56.0183 5.31333C56.2011 5.03918 56.4491 4.81724 56.7494 4.66059C57.0496 4.50393 57.3891 4.43866 57.7546 4.43866C58.0418 4.43866 58.3029 4.50393 58.5379 4.59531C58.7729 4.69975 58.9687 4.84336 59.1254 5.02613L58.7729 5.33944C58.5118 5.05223 58.1724 4.89557 57.7546 4.88252C57.4805 4.88252 57.2324 4.93474 56.9974 5.05223C56.7755 5.16972 56.5927 5.32638 56.4491 5.53526C56.3186 5.74414 56.2402 5.97913 56.2272 6.24022C56.2141 6.50132 56.2664 6.73631 56.3838 6.95824C56.5013 7.18017 56.658 7.34988 56.8799 7.46737C57.0888 7.59792 57.3369 7.6632 57.611 7.6632C58.0157 7.67625 58.3682 7.53265 58.6684 7.24545L58.9948 7.58487C58.812 7.76764 58.6032 7.91124 58.3551 8.00263C58.1071 8.09401 57.846 8.13318 57.5588 8.13318C57.2063 8.14623 56.8799 8.05484 56.5927 7.88513Z" fill="#FFE777"/>
<path d="M63.0549 5.33945L61.8016 5.20891L61.3838 8.36818L60.8747 8.31595L61.2925 5.15669L60.0392 5.02614L60.1045 4.58228L63.1201 4.89559L63.0549 5.33945Z" fill="#FFE777"/>
<path d="M64.5169 5.09137L65.0261 5.19581L64.4125 7.95037L67.154 5.61356L67.624 5.70494L66.8276 9.26892L66.3185 9.17753L66.9321 6.43602L64.1906 8.77283L63.7206 8.68145L64.5169 5.09137Z" fill="#FFE777"/>
<path d="M71.7494 7.29763L70.5483 6.95821L69.5823 10.013L69.0862 9.86944L70.0522 6.8146L68.8512 6.47518L68.9948 6.04437L71.893 6.87988L71.7494 7.29763Z" fill="#FFE777"/>
<path d="M75.8486 8.30284L73.1985 10.5352C72.9896 10.718 72.7807 10.8224 72.5719 10.8746C72.363 10.9269 72.1672 10.9138 71.9713 10.8355C71.8277 10.7833 71.6841 10.6919 71.5536 10.5613L71.8408 10.2219C71.9452 10.3133 72.0366 10.3655 72.1411 10.4047C72.3499 10.483 72.5849 10.4438 72.8068 10.2611L72.9374 10.1697L72.611 7.07568L73.1332 7.27151L73.3682 9.84331L75.3787 8.10702L75.8486 8.30284Z" fill="#FFE777"/>
<path d="M79.1253 10.3133L77.9895 9.77809L76.5404 12.6501L76.0835 12.4282L77.5326 9.55615L76.4099 9.02091L76.6188 8.61621L79.3342 9.89558L79.1253 10.3133Z" fill="#FFE777"/>
<path d="M82.3368 11.5797L82.7676 11.8538L81.1749 14.2167L84.5692 13.0157L84.9739 13.2768L82.9112 16.3316L82.4804 16.0575L84.0731 13.7076L80.6789 14.8956L80.2742 14.6345L82.3368 11.5797Z" fill="#FFE777"/>
<path d="M86.9713 17.4282C86.9713 17.624 86.906 17.8068 86.7624 17.9765C86.6188 18.1462 86.4491 18.2507 86.2402 18.2898C86.0314 18.329 85.8094 18.3159 85.5745 18.2507C85.3395 18.1723 85.1175 18.0548 84.9087 17.8982C84.7128 17.7546 84.5562 17.5718 84.4126 17.3629C84.269 17.1541 84.1645 16.9321 84.1123 16.6971L84.5039 16.5013C84.5431 16.6971 84.6345 16.8799 84.7389 17.0496C84.8564 17.2193 84.987 17.3629 85.1436 17.4935C85.3656 17.6762 85.6006 17.7807 85.8356 17.7937C86.0705 17.8199 86.2533 17.7415 86.3969 17.5718C86.5144 17.4282 86.5405 17.2715 86.4883 17.1018C86.4361 16.9321 86.3055 16.7624 86.0966 16.5927L85.457 16.0966L85.7311 15.7702L86.3316 16.2533C86.5144 16.3969 86.6841 16.4752 86.8538 16.4752C87.0105 16.4752 87.1541 16.4099 87.2585 16.2794C87.376 16.1358 87.4152 15.953 87.3499 15.7702C87.2846 15.5744 87.1541 15.4047 86.9452 15.248C86.8147 15.1436 86.658 15.0522 86.4883 14.987C86.3186 14.9217 86.1489 14.8695 85.953 14.8564L86.0966 14.4125C86.3055 14.4386 86.5144 14.5039 86.6972 14.5822C86.893 14.6736 87.0627 14.7781 87.2324 14.8956C87.4282 15.0522 87.598 15.235 87.7155 15.4308C87.8329 15.6266 87.8982 15.8225 87.8982 16.0183C87.8982 16.2141 87.8329 16.3969 87.7024 16.5535C87.5849 16.6971 87.4413 16.7885 87.2716 16.8407C87.1019 16.893 86.9191 16.8799 86.7363 16.8277C86.9061 17.0366 86.9713 17.2193 86.9713 17.4282Z" fill="#FFE777"/>
<path d="M91.8016 18.9556L88.5118 20.0522C88.2507 20.1436 88.0157 20.1697 87.8068 20.1436C87.598 20.1175 87.4152 20.0261 87.2716 19.8825C87.1541 19.778 87.0627 19.6344 86.9974 19.4647L87.3891 19.2559C87.4544 19.3733 87.5196 19.4647 87.5849 19.543C87.7546 19.6997 87.9765 19.7389 88.2507 19.6605L88.4073 19.6214L89.282 16.6057L89.6867 16.9843L88.9165 19.4778L91.423 18.6031L91.8016 18.9556Z" fill="#FFE777"/>
<path d="M94.5301 21.9582L91.7494 24.3995L91.4099 24.0209L92.5066 23.0548C92.141 22.8721 91.8408 22.6501 91.6319 22.4151C91.3447 22.0888 91.188 21.7624 91.2011 21.436C91.2011 21.1097 91.3577 20.8094 91.658 20.5483L92.5588 19.752L92.8982 20.1305L92.0366 20.8877C91.8277 21.0705 91.7233 21.2663 91.7233 21.4882C91.7233 21.7102 91.8147 21.9321 92.0235 22.154C92.2455 22.4021 92.5327 22.5979 92.8721 22.7546L94.2037 21.5927L94.5301 21.9582Z" fill="#FFE777"/>
<path d="M94.6737 27.4412L94.3082 27.7154L92.7416 25.6136L95.7311 23.4203L97.2585 25.47L96.893 25.7441L95.6789 24.1123L94.7651 24.7911L95.8486 26.2402L95.4831 26.5013L94.3995 25.0522L93.4335 25.7572L94.6737 27.4412Z" fill="#FFE777"/>
<path d="M99.7781 29.4909L96.6058 31.41L96.3316 30.9661L97.7415 30.1045L96.6841 28.3421L95.2741 29.2037L95 28.7598L98.1723 26.8408L98.4465 27.2846L97.0888 28.1071L98.1593 29.8825L99.517 29.0601L99.7781 29.4909Z" fill="#FFE777"/>
<path d="M100.692 31.1749L100.914 31.6318L98.342 32.8721L101.828 33.564L102.037 33.9948L98.6945 35.6005L98.4726 35.1436L101.044 33.9034L97.5587 33.1984L97.3499 32.7676L100.692 31.1749Z" fill="#FFE777"/>
<path d="M103.642 38.2637L100.17 39.5561L100 39.0731L101.005 38.6945L100.666 37.7546C100.64 37.7023 100.627 37.6501 100.627 37.624L99.3604 37.3238L99.1776 36.8146L100.548 37.154C100.548 36.8799 100.614 36.6449 100.757 36.436C100.901 36.2402 101.11 36.0835 101.397 35.9791C101.789 35.8355 102.141 35.8486 102.454 36.0052C102.768 36.1749 102.99 36.4621 103.146 36.8929L103.642 38.2637ZM101.084 36.9191C101.005 37.1149 101.005 37.3629 101.11 37.6501L101.436 38.5509L103.042 37.9504L102.729 37.0757C102.624 36.7885 102.467 36.5796 102.285 36.4883C102.089 36.3838 101.867 36.3838 101.593 36.4752C101.332 36.5666 101.162 36.7232 101.084 36.9191Z" fill="#FFE777"/>
<path d="M105.366 45.1045L101.762 45.9269L101.658 45.4308L104.817 44.7128L104.386 42.6501L101.227 43.3682L101.123 42.8721L104.726 42.0496L105.366 45.1045Z" fill="#FFE777"/>
<path d="M105.588 49.5561C105.392 49.8564 105.091 50.0261 104.7 50.0783C104.308 50.1305 103.982 50.0392 103.721 49.8042C103.46 49.5692 103.316 49.2167 103.264 48.7467L103.172 47.859L102.063 48.0026L102.01 47.4935L105.666 47.0104L105.823 48.4204C105.862 48.8773 105.796 49.2559 105.588 49.5561ZM104.008 49.3864C104.165 49.5431 104.386 49.5953 104.648 49.5692C104.909 49.53 105.104 49.4256 105.222 49.2298C105.339 49.0339 105.392 48.7859 105.353 48.4595L105.261 47.5849L103.616 47.7937L103.708 48.6684C103.747 48.9948 103.851 49.2298 104.008 49.3864Z" fill="#FFE777"/>
<path d="M106.071 51.4099L106.084 51.919L103.251 52.0235L106.123 54.0731V54.5561L102.441 54.6997L102.428 54.1906L105.261 54.0862L102.402 52.0365V51.5535L106.071 51.4099Z" fill="#FFE777"/>
<path d="M105.47 58.9948C105.222 59.2558 104.896 59.3733 104.504 59.3472C104.112 59.3211 103.799 59.1775 103.603 58.8903C103.394 58.6031 103.316 58.2245 103.355 57.7545L103.433 56.8538L102.324 56.7885L102.363 56.2663L106.031 56.4752L105.914 57.8982C105.875 58.3681 105.731 58.7337 105.47 58.9948ZM103.956 58.5378C104.086 58.7206 104.282 58.812 104.543 58.8381C104.804 58.8511 105.013 58.7728 105.17 58.6162C105.326 58.4465 105.418 58.1984 105.444 57.872L105.522 56.9843L103.877 56.8929L103.799 57.7807C103.786 58.094 103.838 58.3551 103.956 58.5378Z" fill="#FFE777"/>
<path d="M102.037 61.0966C102.245 60.8355 102.507 60.6397 102.82 60.5092C103.133 60.3917 103.46 60.3525 103.812 60.4047C104.165 60.4569 104.465 60.5875 104.713 60.7964C104.961 61.0052 105.144 61.2663 105.248 61.5796C105.353 61.893 105.379 62.2324 105.313 62.5979C105.248 62.9635 105.104 63.2768 104.896 63.5379C104.687 63.799 104.426 63.9948 104.112 64.1253C103.799 64.2428 103.473 64.282 103.12 64.2298C102.768 64.1776 102.467 64.047 102.219 63.8381C101.971 63.6293 101.789 63.3682 101.684 63.0548C101.58 62.7415 101.554 62.4021 101.619 62.0366C101.684 61.671 101.828 61.3577 102.037 61.0966ZM102.141 62.846C102.219 63.081 102.363 63.2637 102.546 63.4204C102.742 63.577 102.963 63.6684 103.225 63.7076C103.486 63.7468 103.734 63.7206 103.969 63.6293C104.204 63.5379 104.4 63.3943 104.556 63.2115C104.713 63.0157 104.817 62.7938 104.869 62.5327C104.922 62.2716 104.896 62.0235 104.817 61.7885C104.739 61.5535 104.595 61.3577 104.413 61.2141C104.217 61.0575 103.995 60.9661 103.734 60.9269C103.473 60.8877 103.225 60.9139 102.99 61.0052C102.755 61.0966 102.559 61.2402 102.402 61.436C102.245 61.6319 102.141 61.8669 102.089 62.128C102.037 62.376 102.05 62.624 102.141 62.846Z" fill="#FFE777"/>
<path d="M100.522 68.577L99.3081 68.2637L99.4387 67.7937L100.209 67.9896L101.031 65.0914L100.261 64.8956L100.392 64.4256L101.606 64.7389L101.554 64.9086C101.501 65.1306 101.632 65.3394 101.945 65.5091C102.259 65.6919 102.715 65.8616 103.329 66.0444L104.452 66.3708L103.747 68.8512L100.64 68.0679L100.522 68.577ZM101.958 66.0444C101.645 65.9008 101.449 65.7441 101.371 65.5744L100.809 67.5718L103.473 68.2507L103.916 66.6971L103.185 66.4883C102.676 66.3316 102.272 66.188 101.958 66.0444Z" fill="#FFE777"/>
<path d="M101.789 74.1253L101.593 74.6084L98.1854 73.342L98.3812 72.859L101.789 74.1253ZM100.679 72.7154C100.405 72.859 100.104 72.8721 99.739 72.7415C99.3604 72.5979 99.1254 72.376 99.0209 72.0757C98.9165 71.7754 98.9557 71.3969 99.1254 70.966L99.6867 69.5561L103.094 70.8225L102.898 71.3055L101.71 70.8616L101.306 71.8799C101.162 72.2976 100.953 72.5718 100.679 72.7154ZM99.4648 71.8146C99.5301 72.0104 99.6867 72.154 99.9348 72.2454C100.405 72.4151 100.757 72.2193 100.992 71.6318L101.358 70.7311L99.9087 70.1958L99.5431 71.0966C99.4256 71.3838 99.3995 71.6188 99.4648 71.8146Z" fill="#FFE777"/>
<path d="M95.222 79.7128L94.1384 79.1123L94.3865 78.6945L95.0784 79.0731L96.6188 76.4491L95.9269 76.0575L96.175 75.6397L97.2585 76.2533L97.1671 76.4099C97.0627 76.6188 97.141 76.8407 97.3891 77.1018C97.6502 77.3499 98.0418 77.6371 98.5901 77.9635L99.5954 78.564L98.2768 80.7964L95.4961 79.2559L95.222 79.7128ZM97.2716 77.611C97.0105 77.3891 96.8669 77.1932 96.8277 76.9974L95.7703 78.799L98.1463 80.1175L98.9687 78.7206L98.316 78.329C97.8721 78.0679 97.5196 77.8329 97.2716 77.611Z" fill="#FFE777"/>
<path d="M92.9634 82.9112L92.5979 82.6632L94.1645 80.483L97.154 82.5326L95.6397 84.6606L95.2741 84.4125L96.4882 82.7154L95.5744 82.0888L94.4909 83.6031L94.1253 83.3551L95.2089 81.8407L94.2428 81.1749L92.9634 82.9112Z" fill="#FFE777"/>
<path d="M92.5065 88.3942L89.7258 86.0835L90.0653 85.6788L91.3055 86.7102L92.6893 85.0914L91.4491 84.06L91.7885 83.6553L94.5692 85.966L94.2297 86.3707L93.0418 85.3786L91.658 86.9974L92.8459 87.9895L92.5065 88.3942Z" fill="#FFE777"/>
<path d="M86.9974 89.4256L86.6841 89.1123L88.6162 87.2324L91.1619 89.7911L89.282 91.6188L88.9687 91.3055L90.47 89.8564L89.6867 89.0731L88.3551 90.3655L88.0418 90.0522L89.3734 88.7598L88.5509 87.9373L86.9974 89.4256Z" fill="#FFE777"/>
<path d="M85.8747 93.9295L87.3368 92.7024L85.3003 90.3003L85.705 89.9608L88.0287 92.7154L86.1619 94.2689L85.8747 93.9295Z" fill="#FFE777"/>
<path d="M26.8277 96.9191C27.1954 96.9191 27.4935 96.6327 27.4935 96.2794C27.4935 95.9261 27.1954 95.6397 26.8277 95.6397C26.46 95.6397 26.1619 95.9261 26.1619 96.2794C26.1619 96.6327 26.46 96.9191 26.8277 96.9191Z" fill="#FFE777"/>
<path d="M80.5614 97.0627C80.9291 97.0627 81.2272 96.7763 81.2272 96.423C81.2272 96.0697 80.9291 95.7833 80.5614 95.7833C80.1937 95.7833 79.8956 96.0697 79.8956 96.423C79.8956 96.7763 80.1937 97.0627 80.5614 97.0627Z" fill="#FFE777"/>
<path d="M55.1175 14.3473C56.1774 14.3473 57.0366 13.4881 57.0366 12.4282C57.0366 11.3683 56.1774 10.5092 55.1175 10.5092C54.0577 10.5092 53.1985 11.3683 53.1985 12.4282C53.1985 13.4881 54.0577 14.3473 55.1175 14.3473Z" fill="url(#paint11_linear_841_1281)"/>
<g opacity="0.41">
<path opacity="0.41" d="M55.1175 14.3473C56.1774 14.3473 57.0366 13.4881 57.0366 12.4282C57.0366 11.3683 56.1774 10.5092 55.1175 10.5092C54.0577 10.5092 53.1985 11.3683 53.1985 12.4282C53.1985 13.4881 54.0577 14.3473 55.1175 14.3473Z" fill="#FFDF10"/>
</g>
<path d="M16.6971 78.2637C17.757 78.2637 18.6162 77.4045 18.6162 76.3447C18.6162 75.2848 17.757 74.4256 16.6971 74.4256C15.6373 74.4256 14.7781 75.2848 14.7781 76.3447C14.7781 77.4045 15.6373 78.2637 16.6971 78.2637Z" fill="url(#paint12_linear_841_1281)"/>
<g opacity="0.41">
<path opacity="0.41" d="M16.6971 78.2637C17.757 78.2637 18.6162 77.4045 18.6162 76.3447C18.6162 75.2848 17.757 74.4256 16.6971 74.4256C15.6373 74.4256 14.7781 75.2848 14.7781 76.3447C14.7781 77.4045 15.6373 78.2637 16.6971 78.2637Z" fill="#FFDF10"/>
</g>
<path d="M91.0052 81.0575C92.0651 81.0575 92.9243 80.1983 92.9243 79.1384C92.9243 78.0785 92.0651 77.2193 91.0052 77.2193C89.9454 77.2193 89.0862 78.0785 89.0862 79.1384C89.0862 80.1983 89.9454 81.0575 91.0052 81.0575Z" fill="url(#paint13_linear_841_1281)"/>
<g opacity="0.41">
<path opacity="0.41" d="M91.0052 81.0575C92.0651 81.0575 92.9243 80.1983 92.9243 79.1384C92.9243 78.0785 92.0651 77.2193 91.0052 77.2193C89.9454 77.2193 89.0862 78.0785 89.0862 79.1384C89.0862 80.1983 89.9454 81.0575 91.0052 81.0575Z" fill="#FFDF10"/>
</g>
<path d="M58.0679 61.1619C59.8433 60.1175 61.0313 58.1854 61.0313 55.9791C61.0313 52.6632 58.342 49.9739 55.0261 49.9739C51.7102 49.9739 49.0209 52.6632 49.0209 55.9791C49.0209 58.1854 50.2089 60.1175 51.9843 61.1619L49.9086 72.389H60.6266L58.0679 61.1619Z" fill="#010101"/>
<path d="M61.2141 72.8459H49.3211L51.4491 61.3838C49.6475 60.1958 48.5378 58.1462 48.5378 55.966C48.5378 52.389 51.4491 49.4778 55.0261 49.4778C58.6031 49.4778 61.5143 52.389 61.5143 55.966C61.5143 58.1331 60.4047 60.1697 58.6162 61.3707L61.2141 72.8459ZM50.47 71.906H60.0261L57.5196 60.9269L57.8198 60.7572C59.5039 59.765 60.5483 57.9373 60.5483 55.9791C60.5483 52.9243 58.0679 50.4438 55.013 50.4438C51.9582 50.4438 49.4778 52.9243 49.4778 55.9791C49.4778 57.9243 50.5222 59.765 52.2062 60.7572L52.4935 60.9269L50.47 71.906Z" fill="url(#paint14_linear_841_1281)"/>
<path d="M54.6737 98.7337C51.0966 98.7337 47.5457 98.3029 44.1123 97.4413C40.7703 96.6058 37.5327 95.3655 34.4909 93.7598C28.5118 90.6005 23.2768 86.0183 19.3604 80.4961L19.8303 80.1567C27.846 91.4361 40.8617 98.1593 54.6737 98.1593C67.9504 98.1593 80.2481 92.141 88.4073 81.6449L88.8643 81.9974C84.8956 87.0888 79.7651 91.3055 74.0079 94.1776C71.0705 95.6528 67.9504 96.7755 64.7651 97.5457C61.4752 98.3421 58.081 98.7337 54.6737 98.7337Z" fill="url(#paint15_linear_841_1281)"/>
<path d="M93.0287 75.5483L92.5065 75.2742C95.6919 69.2037 97.376 62.3368 97.376 55.4308C97.376 33.6684 81.0966 15.4178 59.4908 12.9896L59.5561 12.4152C70.0653 13.6032 79.7519 18.6032 86.8538 26.5013C94.0078 34.4517 97.9504 44.7389 97.9504 55.4439C97.9504 59.0078 97.5196 62.5457 96.658 65.9661C95.8616 69.282 94.6214 72.5065 93.0287 75.5483Z" fill="url(#paint16_linear_841_1281)"/>
<path d="M14.7519 72.2454C12.5065 66.919 11.3707 61.2663 11.3707 55.4308C11.3707 44.6344 15.3655 34.295 22.624 26.3185C29.8303 18.3942 39.6344 13.4334 50.248 12.3499L50.3133 12.9243C28.4464 15.1566 11.9582 33.4334 11.9582 55.4438C11.9582 61.201 13.0809 66.7754 15.3002 72.0365L14.7519 72.2454Z" fill="url(#paint17_linear_841_1281)"/>
<defs>
<linearGradient id="paint0_linear_841_1281" x1="46.2039" y1="49.7703" x2="55.341" y2="67.8523" gradientUnits="userSpaceOnUse">
<stop stop-color="#F8B11B" stop-opacity="0"/>
<stop offset="1" stop-color="#FFEDA3"/>
</linearGradient>
<linearGradient id="paint1_linear_841_1281" x1="55.2323" y1="44.0539" x2="63.4142" y2="62.1989" gradientUnits="userSpaceOnUse">
<stop offset="0.0642458" stop-color="#FFD56D"/>
<stop offset="1" stop-color="#E4A214" stop-opacity="0"/>
</linearGradient>
<linearGradient id="paint2_linear_841_1281" x1="53.8706" y1="41.1645" x2="42.3363" y2="66.8351" gradientUnits="userSpaceOnUse">
<stop stop-color="#F8B11B" stop-opacity="0"/>
<stop offset="1" stop-color="#FFEDA3"/>
</linearGradient>
<linearGradient id="paint3_linear_841_1281" x1="67.934" y1="45.9147" x2="55.4966" y2="70.6091" gradientUnits="userSpaceOnUse">
<stop offset="0.0642458" stop-color="#FFD56D"/>
<stop offset="1" stop-color="#E4A214" stop-opacity="0"/>
</linearGradient>
<linearGradient id="paint4_linear_841_1281" x1="69.8703" y1="42.0021" x2="32.0847" y2="51.9928" gradientUnits="userSpaceOnUse">
<stop stop-color="#F8B11B" stop-opacity="0"/>
<stop offset="1" stop-color="#FFEDA3"/>
</linearGradient>
<linearGradient id="paint5_linear_841_1281" x1="77.0367" y1="61.3314" x2="39.5152" y2="69.4943" gradientUnits="userSpaceOnUse">
<stop offset="0.0642458" stop-color="#FFD56D"/>
<stop offset="1" stop-color="#E4A214" stop-opacity="0"/>
</linearGradient>
<linearGradient id="paint6_linear_841_1281" x1="82.9749" y1="59.9823" x2="39.1713" y2="27.9316" gradientUnits="userSpaceOnUse">
<stop stop-color="#F8B11B" stop-opacity="0"/>
<stop offset="1" stop-color="#FFEDA3"/>
</linearGradient>
<linearGradient id="paint7_linear_841_1281" x1="68.3758" y1="84.6087" x2="26.7758" y2="51.2458" gradientUnits="userSpaceOnUse">
<stop offset="0.0642458" stop-color="#FFD56D"/>
<stop offset="1" stop-color="#E4A214" stop-opacity="0"/>
</linearGradient>
<linearGradient id="paint8_linear_841_1281" x1="75.0311" y1="89.8114" x2="71.3365" y2="14.5128" gradientUnits="userSpaceOnUse">
<stop stop-color="#F8B11B" stop-opacity="0"/>
<stop offset="1" stop-color="#FFEDA3"/>
</linearGradient>
<linearGradient id="paint9_linear_841_1281" x1="35.6875" y1="95.5798" x2="35.3356" y2="21.5127" gradientUnits="userSpaceOnUse">
<stop offset="0.0642458" stop-color="#FFD56D"/>
<stop offset="1" stop-color="#E4A214" stop-opacity="0"/>
</linearGradient>
<linearGradient id="paint10_linear_841_1281" x1="0.0157572" y1="55.0125" x2="109.993" y2="55.0125" gradientUnits="userSpaceOnUse">
<stop offset="0.1454" stop-color="#EDC141"/>
<stop offset="0.2628" stop-color="#F2EEA0"/>
<stop offset="0.7526" stop-color="#F2EEA0"/>
<stop offset="0.8648" stop-color="#EDC141"/>
</linearGradient>
<linearGradient id="paint11_linear_841_1281" x1="56.0805" y1="1.14937" x2="54.8224" y2="16.0017" gradientUnits="userSpaceOnUse">
<stop stop-color="#995D1F"/>
<stop offset="0.1454" stop-color="#EDC141"/>
<stop offset="0.2628" stop-color="#F2EEA0"/>
<stop offset="0.3801" stop-color="#EDC141"/>
<stop offset="0.4974" stop-color="#995D1F"/>
<stop offset="0.6199" stop-color="#EDC141"/>
<stop offset="0.7526" stop-color="#F2EEA0"/>
<stop offset="0.8648" stop-color="#EDC141"/>
<stop offset="1" stop-color="#995D1F"/>
</linearGradient>
<linearGradient id="paint12_linear_841_1281" x1="6.55258" y1="81.3638" x2="19.9061" y2="74.7434" gradientUnits="userSpaceOnUse">
<stop stop-color="#995D1F"/>
<stop offset="0.1454" stop-color="#EDC141"/>
<stop offset="0.2628" stop-color="#F2EEA0"/>
<stop offset="0.3801" stop-color="#EDC141"/>
<stop offset="0.4974" stop-color="#995D1F"/>
<stop offset="0.6199" stop-color="#EDC141"/>
<stop offset="0.7526" stop-color="#F2EEA0"/>
<stop offset="0.8648" stop-color="#EDC141"/>
<stop offset="1" stop-color="#995D1F"/>
</linearGradient>
<linearGradient id="paint13_linear_841_1281" x1="81.8263" y1="72.52" x2="93.9249" y2="81.226" gradientUnits="userSpaceOnUse">
<stop stop-color="#995D1F"/>
<stop offset="0.1454" stop-color="#EDC141"/>
<stop offset="0.2628" stop-color="#F2EEA0"/>
<stop offset="0.3801" stop-color="#EDC141"/>
<stop offset="0.4974" stop-color="#995D1F"/>
<stop offset="0.6199" stop-color="#EDC141"/>
<stop offset="0.7526" stop-color="#F2EEA0"/>
<stop offset="0.8648" stop-color="#EDC141"/>
<stop offset="1" stop-color="#995D1F"/>
</linearGradient>
<linearGradient id="paint14_linear_841_1281" x1="48.5427" y1="61.1707" x2="61.5099" y2="61.1707" gradientUnits="userSpaceOnUse">
<stop offset="0.1454" stop-color="#EDC141"/>
<stop offset="0.2628" stop-color="#F2EEA0"/>
<stop offset="0.7526" stop-color="#F2EEA0"/>
<stop offset="0.8648" stop-color="#EDC141"/>
</linearGradient>
<linearGradient id="paint15_linear_841_1281" x1="19.3502" y1="89.4447" x2="88.869" y2="89.4447" gradientUnits="userSpaceOnUse">
<stop offset="0.1454" stop-color="#EDC141"/>
<stop offset="0.2628" stop-color="#F2EEA0"/>
<stop offset="0.7526" stop-color="#F2EEA0"/>
<stop offset="0.8648" stop-color="#EDC141"/>
</linearGradient>
<linearGradient id="paint16_linear_841_1281" x1="59.5115" y1="43.9792" x2="97.9747" y2="43.9792" gradientUnits="userSpaceOnUse">
<stop offset="0.1454" stop-color="#EDC141"/>
<stop offset="0.2628" stop-color="#F2EEA0"/>
<stop offset="0.7526" stop-color="#F2EEA0"/>
<stop offset="0.8648" stop-color="#EDC141"/>
</linearGradient>
<linearGradient id="paint17_linear_841_1281" x1="11.3727" y1="42.3059" x2="50.3057" y2="42.3059" gradientUnits="userSpaceOnUse">
<stop offset="0.1454" stop-color="#EDC141"/>
<stop offset="0.2628" stop-color="#F2EEA0"/>
<stop offset="0.7526" stop-color="#F2EEA0"/>
<stop offset="0.8648" stop-color="#EDC141"/>
</linearGradient>
</defs>
</svg>
