<svg width="40" height="40" viewBox="0 0 40 40" fill="none" xmlns="http://www.w3.org/2000/svg">
<path d="M34.1862 5.90153C30.4467 2.13869 25.3995 0.0429208 20.0971 0C14.7736 0.00954735 9.63442 2.08529 5.86667 5.84847C2.0835 9.62702 0 14.6527 0 20C0 25.3183 2.06427 30.3247 5.81237 34.0971C9.5509 37.8597 14.6677 39.9561 19.9691 40C25.2925 39.9901 30.3658 37.9144 34.1333 34.1515C37.9166 30.3729 40 25.3472 40 20C40.0001 14.6809 37.9353 9.674 34.1862 5.90153ZM19.9621 18.9768C17.2424 19.0825 14.6899 20.1992 12.7745 22.1213C10.8123 24.0903 9.73163 26.7068 9.73163 29.4885C9.73163 31.9074 10.5266 34.2065 11.9889 36.0668C6.07719 33.114 2.00007 27.0066 2.00007 20C2.00007 10.1007 10.0749 2.0471 20 2.0471C20.0115 2.0471 20.0229 2.04693 20.0344 2.04651C24.5779 2.06544 28.2682 5.85557 28.2682 10.5115C28.2683 15.0774 24.6197 18.7959 19.9621 18.9768Z" fill="url(#paint0_linear_641_373)"/>
<path d="M34.1862 5.90153C30.4467 2.13869 25.3995 0.0429208 20.0971 0C14.7736 0.00954735 9.63442 2.08529 5.86667 5.84847C2.0835 9.62702 0 14.6527 0 20C0 25.3183 2.06427 30.3247 5.81237 34.0971C9.5509 37.8597 14.6677 39.9561 19.9691 40C25.2925 39.9901 30.3658 37.9144 34.1333 34.1515C37.9166 30.3729 40 25.3472 40 20C40.0001 14.6809 37.9353 9.674 34.1862 5.90153ZM19.9621 18.9768C17.2424 19.0825 14.6899 20.1992 12.7745 22.1213C10.8123 24.0903 9.73163 26.7068 9.73163 29.4885C9.73163 31.9074 10.5266 34.2065 11.9889 36.0668C6.07719 33.114 2.00007 27.0066 2.00007 20C2.00007 10.1007 10.0749 2.0471 20 2.0471C20.0115 2.0471 20.0229 2.04693 20.0344 2.04651C24.5779 2.06544 28.2682 5.85557 28.2682 10.5115C28.2683 15.0774 24.6197 18.7959 19.9621 18.9768Z" fill="url(#paint1_radial_641_373)" fill-opacity="0.8"/>
<path d="M34.1862 5.90153C30.4467 2.13869 25.3995 0.0429208 20.0971 0C14.7736 0.00954735 9.63442 2.08529 5.86667 5.84847C2.0835 9.62702 0 14.6527 0 20C0 25.3183 2.06427 30.3247 5.81237 34.0971C9.5509 37.8597 14.6677 39.9561 19.9691 40C25.2925 39.9901 30.3658 37.9144 34.1333 34.1515C37.9166 30.3729 40 25.3472 40 20C40.0001 14.6809 37.9353 9.674 34.1862 5.90153ZM19.9621 18.9768C17.2424 19.0825 14.6899 20.1992 12.7745 22.1213C10.8123 24.0903 9.73163 26.7068 9.73163 29.4885C9.73163 31.9074 10.5266 34.2065 11.9889 36.0668C6.07719 33.114 2.00007 27.0066 2.00007 20C2.00007 10.1007 10.0749 2.0471 20 2.0471C20.0115 2.0471 20.0229 2.04693 20.0344 2.04651C24.5779 2.06544 28.2682 5.85557 28.2682 10.5115C28.2683 15.0774 24.6197 18.7959 19.9621 18.9768Z" fill="#FFAD00" fill-opacity="0.45"/>
<path d="M34.1862 5.90153C30.4467 2.13869 25.3995 0.0429208 20.0971 0C14.7736 0.00954735 9.63442 2.08529 5.86667 5.84847C2.0835 9.62702 0 14.6527 0 20C0 25.3183 2.06427 30.3247 5.81237 34.0971C9.5509 37.8597 14.6677 39.9561 19.9691 40C25.2925 39.9901 30.3658 37.9144 34.1333 34.1515C37.9166 30.3729 40 25.3472 40 20C40.0001 14.6809 37.9353 9.674 34.1862 5.90153ZM19.9621 18.9768C17.2424 19.0825 14.6899 20.1992 12.7745 22.1213C10.8123 24.0903 9.73163 26.7068 9.73163 29.4885C9.73163 31.9074 10.5266 34.2065 11.9889 36.0668C6.07719 33.114 2.00007 27.0066 2.00007 20C2.00007 10.1007 10.0749 2.0471 20 2.0471C20.0115 2.0471 20.0229 2.04693 20.0344 2.04651C24.5779 2.06544 28.2682 5.85557 28.2682 10.5115C28.2683 15.0774 24.6197 18.7959 19.9621 18.9768Z" fill="url(#paint2_radial_641_373)" fill-opacity="0.8"/>
<defs>
<linearGradient id="paint0_linear_641_373" x1="0" y1="0" x2="49.7931" y2="11.0345" gradientUnits="userSpaceOnUse">
<stop offset="0.208333" stop-color="white"/>
<stop offset="0.369792" stop-color="#59636C" stop-opacity="0.65"/>
<stop offset="0.66093" stop-color="white"/>
<stop offset="0.78266" stop-color="#486177" stop-opacity="0.55"/>
<stop offset="1" stop-color="#67737E" stop-opacity="0.95"/>
</linearGradient>
<radialGradient id="paint1_radial_641_373" cx="0" cy="0" r="1" gradientUnits="userSpaceOnUse" gradientTransform="rotate(63.5932) scale(44.6598 18.5709)">
<stop stop-color="white"/>
<stop offset="1" stop-color="#F8B017" stop-opacity="0.2"/>
</radialGradient>
<radialGradient id="paint2_radial_641_373" cx="0" cy="0" r="1" gradientUnits="userSpaceOnUse" gradientTransform="rotate(61.1134) scale(45.6841 26.2528)">
<stop offset="0.28423" stop-color="white" stop-opacity="0.75"/>
<stop offset="0.98979" stop-color="#F8B017" stop-opacity="0.1"/>
</radialGradient>
</defs>
</svg>
