<svg width="40" height="40" viewBox="0 0 40 40" fill="none" xmlns="http://www.w3.org/2000/svg">
<path d="M29.4999 13.0001C28.766 13.4349 27.9638 13.7423 27.1272 13.9091C26.4163 13.1635 25.4302 12.7427 24.3999 12.7455C22.3705 12.7302 20.7075 14.3526 20.6727 16.3818C20.6735 16.6635 20.7071 16.9442 20.7727 17.2182C17.7838 17.0771 14.9923 15.6847 13.0818 13.3819C12.755 13.9326 12.5793 14.5598 12.5727 15.2001C12.5728 16.4347 13.1993 17.5848 14.2364 18.2546C13.6441 18.2353 13.0647 18.0765 12.5454 17.7909C12.5454 17.7909 12.5454 17.7909 12.5454 17.8364C12.5395 19.6096 13.7953 21.1365 15.5364 21.4727C14.9875 21.6191 14.4128 21.6408 13.8546 21.5364C14.3565 23.0384 15.7528 24.0592 17.3364 24.0819C16.0181 25.107 14.3972 25.6665 12.7273 25.6728C12.4235 25.6725 12.1199 25.6543 11.8182 25.6183C13.529 26.7005 15.5121 27.2743 17.5364 27.2728C23.3093 27.3783 28.0747 22.7838 28.1802 17.0109C28.1813 16.9498 28.1819 16.8886 28.1819 16.8273C28.1819 16.6698 28.1819 16.5122 28.1819 16.3546C28.8944 15.8324 29.5098 15.1894 30.0001 14.4546C29.3176 14.7534 28.5946 14.9495 27.8546 15.0364C28.6328 14.5809 29.218 13.8567 29.4999 13.0001Z" fill="url(#paint0_linear_641_367)"/>
<path d="M29.4999 13.0001C28.766 13.4349 27.9638 13.7423 27.1272 13.9091C26.4163 13.1635 25.4302 12.7427 24.3999 12.7455C22.3705 12.7302 20.7075 14.3526 20.6727 16.3818C20.6735 16.6635 20.7071 16.9442 20.7727 17.2182C17.7838 17.0771 14.9923 15.6847 13.0818 13.3819C12.755 13.9326 12.5793 14.5598 12.5727 15.2001C12.5728 16.4347 13.1993 17.5848 14.2364 18.2546C13.6441 18.2353 13.0647 18.0765 12.5454 17.7909C12.5454 17.7909 12.5454 17.7909 12.5454 17.8364C12.5395 19.6096 13.7953 21.1365 15.5364 21.4727C14.9875 21.6191 14.4128 21.6408 13.8546 21.5364C14.3565 23.0384 15.7528 24.0592 17.3364 24.0819C16.0181 25.107 14.3972 25.6665 12.7273 25.6728C12.4235 25.6725 12.1199 25.6543 11.8182 25.6183C13.529 26.7005 15.5121 27.2743 17.5364 27.2728C23.3093 27.3783 28.0747 22.7838 28.1802 17.0109C28.1813 16.9498 28.1819 16.8886 28.1819 16.8273C28.1819 16.6698 28.1819 16.5122 28.1819 16.3546C28.8944 15.8324 29.5098 15.1894 30.0001 14.4546C29.3176 14.7534 28.5946 14.9495 27.8546 15.0364C28.6328 14.5809 29.218 13.8567 29.4999 13.0001Z" fill="url(#paint1_radial_641_367)" fill-opacity="0.8"/>
<path d="M29.4999 13.0001C28.766 13.4349 27.9638 13.7423 27.1272 13.9091C26.4163 13.1635 25.4302 12.7427 24.3999 12.7455C22.3705 12.7302 20.7075 14.3526 20.6727 16.3818C20.6735 16.6635 20.7071 16.9442 20.7727 17.2182C17.7838 17.0771 14.9923 15.6847 13.0818 13.3819C12.755 13.9326 12.5793 14.5598 12.5727 15.2001C12.5728 16.4347 13.1993 17.5848 14.2364 18.2546C13.6441 18.2353 13.0647 18.0765 12.5454 17.7909C12.5454 17.7909 12.5454 17.7909 12.5454 17.8364C12.5395 19.6096 13.7953 21.1365 15.5364 21.4727C14.9875 21.6191 14.4128 21.6408 13.8546 21.5364C14.3565 23.0384 15.7528 24.0592 17.3364 24.0819C16.0181 25.107 14.3972 25.6665 12.7273 25.6728C12.4235 25.6725 12.1199 25.6543 11.8182 25.6183C13.529 26.7005 15.5121 27.2743 17.5364 27.2728C23.3093 27.3783 28.0747 22.7838 28.1802 17.0109C28.1813 16.9498 28.1819 16.8886 28.1819 16.8273C28.1819 16.6698 28.1819 16.5122 28.1819 16.3546C28.8944 15.8324 29.5098 15.1894 30.0001 14.4546C29.3176 14.7534 28.5946 14.9495 27.8546 15.0364C28.6328 14.5809 29.218 13.8567 29.4999 13.0001Z" fill="#FFAD00" fill-opacity="0.45"/>
<path d="M29.4999 13.0001C28.766 13.4349 27.9638 13.7423 27.1272 13.9091C26.4163 13.1635 25.4302 12.7427 24.3999 12.7455C22.3705 12.7302 20.7075 14.3526 20.6727 16.3818C20.6735 16.6635 20.7071 16.9442 20.7727 17.2182C17.7838 17.0771 14.9923 15.6847 13.0818 13.3819C12.755 13.9326 12.5793 14.5598 12.5727 15.2001C12.5728 16.4347 13.1993 17.5848 14.2364 18.2546C13.6441 18.2353 13.0647 18.0765 12.5454 17.7909C12.5454 17.7909 12.5454 17.7909 12.5454 17.8364C12.5395 19.6096 13.7953 21.1365 15.5364 21.4727C14.9875 21.6191 14.4128 21.6408 13.8546 21.5364C14.3565 23.0384 15.7528 24.0592 17.3364 24.0819C16.0181 25.107 14.3972 25.6665 12.7273 25.6728C12.4235 25.6725 12.1199 25.6543 11.8182 25.6183C13.529 26.7005 15.5121 27.2743 17.5364 27.2728C23.3093 27.3783 28.0747 22.7838 28.1802 17.0109C28.1813 16.9498 28.1819 16.8886 28.1819 16.8273C28.1819 16.6698 28.1819 16.5122 28.1819 16.3546C28.8944 15.8324 29.5098 15.1894 30.0001 14.4546C29.3176 14.7534 28.5946 14.9495 27.8546 15.0364C28.6328 14.5809 29.218 13.8567 29.4999 13.0001Z" fill="url(#paint2_radial_641_367)" fill-opacity="0.8"/>
<path d="M20 0C8.9543 0 0 8.9543 0 20C0 31.0457 8.9543 40 20 40C31.0457 40 40 31.0457 40 20C40 8.9543 31.0457 0 20 0ZM20 38.1818C9.95844 38.1818 1.8182 30.0416 1.8182 20C1.8182 9.95844 9.95844 1.8182 20 1.8182C30.0416 1.8182 38.1818 9.95844 38.1818 20C38.1818 30.0416 30.0416 38.1818 20 38.1818Z" fill="url(#paint3_linear_641_367)"/>
<path d="M20 0C8.9543 0 0 8.9543 0 20C0 31.0457 8.9543 40 20 40C31.0457 40 40 31.0457 40 20C40 8.9543 31.0457 0 20 0ZM20 38.1818C9.95844 38.1818 1.8182 30.0416 1.8182 20C1.8182 9.95844 9.95844 1.8182 20 1.8182C30.0416 1.8182 38.1818 9.95844 38.1818 20C38.1818 30.0416 30.0416 38.1818 20 38.1818Z" fill="url(#paint4_radial_641_367)" fill-opacity="0.8"/>
<path d="M20 0C8.9543 0 0 8.9543 0 20C0 31.0457 8.9543 40 20 40C31.0457 40 40 31.0457 40 20C40 8.9543 31.0457 0 20 0ZM20 38.1818C9.95844 38.1818 1.8182 30.0416 1.8182 20C1.8182 9.95844 9.95844 1.8182 20 1.8182C30.0416 1.8182 38.1818 9.95844 38.1818 20C38.1818 30.0416 30.0416 38.1818 20 38.1818Z" fill="#FFAD00" fill-opacity="0.45"/>
<path d="M20 0C8.9543 0 0 8.9543 0 20C0 31.0457 8.9543 40 20 40C31.0457 40 40 31.0457 40 20C40 8.9543 31.0457 0 20 0ZM20 38.1818C9.95844 38.1818 1.8182 30.0416 1.8182 20C1.8182 9.95844 9.95844 1.8182 20 1.8182C30.0416 1.8182 38.1818 9.95844 38.1818 20C38.1818 30.0416 30.0416 38.1818 20 38.1818Z" fill="url(#paint5_radial_641_367)" fill-opacity="0.8"/>
<defs>
<linearGradient id="paint0_linear_641_367" x1="11.8182" y1="12.7454" x2="33.8673" y2="18.86" gradientUnits="userSpaceOnUse">
<stop offset="0.208333" stop-color="white"/>
<stop offset="0.369792" stop-color="#59636C" stop-opacity="0.65"/>
<stop offset="0.66093" stop-color="white"/>
<stop offset="0.78266" stop-color="#486177" stop-opacity="0.55"/>
<stop offset="1" stop-color="#67737E" stop-opacity="0.95"/>
</linearGradient>
<radialGradient id="paint1_radial_641_367" cx="0" cy="0" r="1" gradientUnits="userSpaceOnUse" gradientTransform="translate(11.8182 12.7454) rotate(58.1438) scale(17.1058 8.00514)">
<stop stop-color="white"/>
<stop offset="1" stop-color="#F8B017" stop-opacity="0.2"/>
</radialGradient>
<radialGradient id="paint2_radial_641_367" cx="0" cy="0" r="1" gradientUnits="userSpaceOnUse" gradientTransform="translate(11.8182 12.7454) rotate(55.3778) scale(17.6558 11.2154)">
<stop offset="0.28423" stop-color="white" stop-opacity="0.75"/>
<stop offset="0.98979" stop-color="#F8B017" stop-opacity="0.1"/>
</radialGradient>
<linearGradient id="paint3_linear_641_367" x1="0" y1="0" x2="49.7931" y2="11.0345" gradientUnits="userSpaceOnUse">
<stop offset="0.208333" stop-color="white"/>
<stop offset="0.369792" stop-color="#59636C" stop-opacity="0.65"/>
<stop offset="0.66093" stop-color="white"/>
<stop offset="0.78266" stop-color="#486177" stop-opacity="0.55"/>
<stop offset="1" stop-color="#67737E" stop-opacity="0.95"/>
</linearGradient>
<radialGradient id="paint4_radial_641_367" cx="0" cy="0" r="1" gradientUnits="userSpaceOnUse" gradientTransform="rotate(63.5932) scale(44.6598 18.5709)">
<stop stop-color="white"/>
<stop offset="1" stop-color="#F8B017" stop-opacity="0.2"/>
</radialGradient>
<radialGradient id="paint5_radial_641_367" cx="0" cy="0" r="1" gradientUnits="userSpaceOnUse" gradientTransform="rotate(61.1134) scale(45.6841 26.2528)">
<stop offset="0.28423" stop-color="white" stop-opacity="0.75"/>
<stop offset="0.98979" stop-color="#F8B017" stop-opacity="0.1"/>
</radialGradient>
</defs>
</svg>
