<svg width="40" height="40" viewBox="0 0 40 40" fill="none" xmlns="http://www.w3.org/2000/svg">
<path d="M20 0C8.95434 0 3.99622e-05 8.9543 3.99622e-05 20C3.99622e-05 23.2735 0.786507 26.3634 2.1808 29.0909C0 40 2.1808 29.0909 0 40C10.9091 37.8192 0 40 10.9091 37.8192C13.6367 39.2135 16.7265 40 20 40C31.0457 40 40 31.0457 40 20C40 8.9543 31.0457 0 20 0ZM20 38.1818C9.95848 38.1818 1.81824 30.0416 1.81824 20C1.81824 9.95844 9.95848 1.8182 20 1.8182C30.0416 1.8182 38.1818 9.95844 38.1818 20C38.1818 30.0416 30.0416 38.1818 20 38.1818Z" fill="url(#paint0_linear_641_364)"/>
<path d="M20 0C8.95434 0 3.99622e-05 8.9543 3.99622e-05 20C3.99622e-05 23.2735 0.786507 26.3634 2.1808 29.0909C0 40 2.1808 29.0909 0 40C10.9091 37.8192 0 40 10.9091 37.8192C13.6367 39.2135 16.7265 40 20 40C31.0457 40 40 31.0457 40 20C40 8.9543 31.0457 0 20 0ZM20 38.1818C9.95848 38.1818 1.81824 30.0416 1.81824 20C1.81824 9.95844 9.95848 1.8182 20 1.8182C30.0416 1.8182 38.1818 9.95844 38.1818 20C38.1818 30.0416 30.0416 38.1818 20 38.1818Z" fill="url(#paint1_radial_641_364)" fill-opacity="0.8"/>
<path d="M20 0C8.95434 0 3.99622e-05 8.9543 3.99622e-05 20C3.99622e-05 23.2735 0.786507 26.3634 2.1808 29.0909C0 40 2.1808 29.0909 0 40C10.9091 37.8192 0 40 10.9091 37.8192C13.6367 39.2135 16.7265 40 20 40C31.0457 40 40 31.0457 40 20C40 8.9543 31.0457 0 20 0ZM20 38.1818C9.95848 38.1818 1.81824 30.0416 1.81824 20C1.81824 9.95844 9.95848 1.8182 20 1.8182C30.0416 1.8182 38.1818 9.95844 38.1818 20C38.1818 30.0416 30.0416 38.1818 20 38.1818Z" fill="#FFAD00" fill-opacity="0.45"/>
<path d="M20 0C8.95434 0 3.99622e-05 8.9543 3.99622e-05 20C3.99622e-05 23.2735 0.786507 26.3634 2.1808 29.0909C0 40 2.1808 29.0909 0 40C10.9091 37.8192 0 40 10.9091 37.8192C13.6367 39.2135 16.7265 40 20 40C31.0457 40 40 31.0457 40 20C40 8.9543 31.0457 0 20 0ZM20 38.1818C9.95848 38.1818 1.81824 30.0416 1.81824 20C1.81824 9.95844 9.95848 1.8182 20 1.8182C30.0416 1.8182 38.1818 9.95844 38.1818 20C38.1818 30.0416 30.0416 38.1818 20 38.1818Z" fill="url(#paint2_radial_641_364)" fill-opacity="0.8"/>
<path d="M30.3843 24.5203L26.3368 21.8205C25.8231 21.4806 25.1346 21.5924 24.7549 22.0774L23.7133 23.5108C23.5618 23.7106 23.2863 23.7685 23.0671 23.6468L22.8429 23.5231C22.0994 23.1178 21.1744 22.6132 19.3105 20.7483C17.4467 18.8835 16.9412 17.9575 16.536 17.2153L16.413 16.9909C16.2896 16.7717 16.3464 16.4951 16.5463 16.3423L17.9238 15.2463C18.4085 14.8665 18.5204 14.178 18.181 13.6641L15.4818 9.61575C15.134 9.09243 14.4361 8.93533 13.8976 9.2591L12.2051 10.276C11.6733 10.5887 11.3284 11.0952 11.1617 11.6892C10.5522 13.9104 10.6299 18.0821 16.2756 23.7297C20.7667 28.2213 24.4457 29.0909 26.7437 29.0909C27.2726 29.0932 27.7994 29.0243 28.3099 28.8863C28.904 28.7197 29.4104 28.3294 29.7229 27.7974L30.7406 26.1055C31.0648 25.5668 30.9078 24.8684 30.3843 24.5203Z" fill="url(#paint3_linear_641_364)"/>
<path d="M30.3843 24.5203L26.3368 21.8205C25.8231 21.4806 25.1346 21.5924 24.7549 22.0774L23.7133 23.5108C23.5618 23.7106 23.2863 23.7685 23.0671 23.6468L22.8429 23.5231C22.0994 23.1178 21.1744 22.6132 19.3105 20.7483C17.4467 18.8835 16.9412 17.9575 16.536 17.2153L16.413 16.9909C16.2896 16.7717 16.3464 16.4951 16.5463 16.3423L17.9238 15.2463C18.4085 14.8665 18.5204 14.178 18.181 13.6641L15.4818 9.61575C15.134 9.09243 14.4361 8.93533 13.8976 9.2591L12.2051 10.276C11.6733 10.5887 11.3284 11.0952 11.1617 11.6892C10.5522 13.9104 10.6299 18.0821 16.2756 23.7297C20.7667 28.2213 24.4457 29.0909 26.7437 29.0909C27.2726 29.0932 27.7994 29.0243 28.3099 28.8863C28.904 28.7197 29.4104 28.3294 29.7229 27.7974L30.7406 26.1055C31.0648 25.5668 30.9078 24.8684 30.3843 24.5203Z" fill="url(#paint4_radial_641_364)" fill-opacity="0.8"/>
<path d="M30.3843 24.5203L26.3368 21.8205C25.8231 21.4806 25.1346 21.5924 24.7549 22.0774L23.7133 23.5108C23.5618 23.7106 23.2863 23.7685 23.0671 23.6468L22.8429 23.5231C22.0994 23.1178 21.1744 22.6132 19.3105 20.7483C17.4467 18.8835 16.9412 17.9575 16.536 17.2153L16.413 16.9909C16.2896 16.7717 16.3464 16.4951 16.5463 16.3423L17.9238 15.2463C18.4085 14.8665 18.5204 14.178 18.181 13.6641L15.4818 9.61575C15.134 9.09243 14.4361 8.93533 13.8976 9.2591L12.2051 10.276C11.6733 10.5887 11.3284 11.0952 11.1617 11.6892C10.5522 13.9104 10.6299 18.0821 16.2756 23.7297C20.7667 28.2213 24.4457 29.0909 26.7437 29.0909C27.2726 29.0932 27.7994 29.0243 28.3099 28.8863C28.904 28.7197 29.4104 28.3294 29.7229 27.7974L30.7406 26.1055C31.0648 25.5668 30.9078 24.8684 30.3843 24.5203Z" fill="#FFAD00" fill-opacity="0.45"/>
<path d="M30.3843 24.5203L26.3368 21.8205C25.8231 21.4806 25.1346 21.5924 24.7549 22.0774L23.7133 23.5108C23.5618 23.7106 23.2863 23.7685 23.0671 23.6468L22.8429 23.5231C22.0994 23.1178 21.1744 22.6132 19.3105 20.7483C17.4467 18.8835 16.9412 17.9575 16.536 17.2153L16.413 16.9909C16.2896 16.7717 16.3464 16.4951 16.5463 16.3423L17.9238 15.2463C18.4085 14.8665 18.5204 14.178 18.181 13.6641L15.4818 9.61575C15.134 9.09243 14.4361 8.93533 13.8976 9.2591L12.2051 10.276C11.6733 10.5887 11.3284 11.0952 11.1617 11.6892C10.5522 13.9104 10.6299 18.0821 16.2756 23.7297C20.7667 28.2213 24.4457 29.0909 26.7437 29.0909C27.2726 29.0932 27.7994 29.0243 28.3099 28.8863C28.904 28.7197 29.4104 28.3294 29.7229 27.7974L30.7406 26.1055C31.0648 25.5668 30.9078 24.8684 30.3843 24.5203Z" fill="url(#paint5_radial_641_364)" fill-opacity="0.8"/>
<defs>
<linearGradient id="paint0_linear_641_364" x1="0" y1="0" x2="49.7932" y2="11.0345" gradientUnits="userSpaceOnUse">
<stop offset="0.208333" stop-color="white"/>
<stop offset="0.369792" stop-color="#59636C" stop-opacity="0.65"/>
<stop offset="0.66093" stop-color="white"/>
<stop offset="0.78266" stop-color="#486177" stop-opacity="0.55"/>
<stop offset="1" stop-color="#67737E" stop-opacity="0.95"/>
</linearGradient>
<radialGradient id="paint1_radial_641_364" cx="0" cy="0" r="1" gradientUnits="userSpaceOnUse" gradientTransform="rotate(63.5932) scale(44.6599 18.5709)">
<stop stop-color="white"/>
<stop offset="1" stop-color="#F8B017" stop-opacity="0.2"/>
</radialGradient>
<radialGradient id="paint2_radial_641_364" cx="0" cy="0" r="1" gradientUnits="userSpaceOnUse" gradientTransform="rotate(61.1134) scale(45.6841 26.2528)">
<stop offset="0.28423" stop-color="white" stop-opacity="0.75"/>
<stop offset="0.98979" stop-color="#F8B017" stop-opacity="0.1"/>
</radialGradient>
<linearGradient id="paint3_linear_641_364" x1="10.9091" y1="9.09094" x2="35.8056" y2="14.6082" gradientUnits="userSpaceOnUse">
<stop offset="0.208333" stop-color="white"/>
<stop offset="0.369792" stop-color="#59636C" stop-opacity="0.65"/>
<stop offset="0.66093" stop-color="white"/>
<stop offset="0.78266" stop-color="#486177" stop-opacity="0.55"/>
<stop offset="1" stop-color="#67737E" stop-opacity="0.95"/>
</linearGradient>
<radialGradient id="paint4_radial_641_364" cx="0" cy="0" r="1" gradientUnits="userSpaceOnUse" gradientTransform="translate(10.9091 9.09094) rotate(63.5932) scale(22.3299 9.28546)">
<stop stop-color="white"/>
<stop offset="1" stop-color="#F8B017" stop-opacity="0.2"/>
</radialGradient>
<radialGradient id="paint5_radial_641_364" cx="0" cy="0" r="1" gradientUnits="userSpaceOnUse" gradientTransform="translate(10.9091 9.09094) rotate(61.1134) scale(22.8421 13.1264)">
<stop offset="0.28423" stop-color="white" stop-opacity="0.75"/>
<stop offset="0.98979" stop-color="#F8B017" stop-opacity="0.1"/>
</radialGradient>
</defs>
</svg>
